<?xml version="1.0" standalone="no"?>
<!DOCTYPE svg PUBLIC "-//W3C//DTD SVG 20010904//EN"
 "http://www.w3.org/TR/2001/REC-SVG-20010904/DTD/svg10.dtd">
<svg version="1.0" xmlns="http://www.w3.org/2000/svg"
 width="2828.000000pt" height="2828.000000pt" viewBox="0 0 2828.000000 2828.000000"
 preserveAspectRatio="xMidYMid meet">

<g transform="translate(0.000000,2828.000000) scale(0.100000,-0.100000)"
fill="#000000" stroke="none">
<path d="M14287 20673 c3 -7 9 -13 14 -13 5 0 9 6 9 13 0 8 -6 14 -14 14 -8 0
-12 -6 -9 -14z"/>
<path d="M14320 20675 c0 -9 6 -12 15 -9 8 4 15 7 15 9 0 2 -7 5 -15 9 -9 3
-15 0 -15 -9z"/>
<path d="M13957 20658 c-15 -5 -26 -15 -24 -21 5 -15 63 -14 60 1 -2 7 4 9 15
5 15 -6 15 -5 3 10 -15 19 -16 19 -54 5z"/>
<path d="M16120 20651 c-8 -6 -11 -13 -7 -18 11 -10 157 -12 157 -1 0 4 -10 9
-22 9 -34 2 -60 6 -88 13 -14 3 -32 2 -40 -3z"/>
<path d="M13832 20638 c-5 -5 -26 -10 -46 -10 -20 0 -36 -4 -36 -8 0 -13 38
-22 52 -13 7 4 31 9 53 10 39 3 85 30 50 30 -8 0 -15 -4 -15 -8 0 -5 -11 -4
-24 1 -15 5 -27 5 -34 -2z"/>
<path d="M13591 20611 c-7 -5 -10 -14 -6 -20 5 -9 10 -9 21 0 10 8 14 8 14 0
0 -14 27 -15 35 -1 3 6 3 15 -1 21 -4 8 -9 7 -15 -2 -6 -10 -9 -11 -9 -1 0 14
-19 16 -39 3z"/>
<path d="M13520 20581 c0 -12 6 -21 16 -21 9 0 14 7 12 17 -5 25 -28 28 -28 4z"/>
<path d="M13386 20583 c-4 -4 -44 -14 -71 -17 -73 -8 -176 -36 -170 -46 2 -4
-8 -7 -23 -7 -55 -1 -62 -3 -62 -22 0 -17 4 -18 28 -12 15 5 36 7 47 5 11 -2
27 -1 35 3 8 3 24 7 35 9 94 15 132 26 145 41 10 12 25 17 44 15 19 -3 26 0
21 8 -6 9 -2 9 13 1 15 -8 21 -7 25 3 4 10 -5 15 -29 18 -19 2 -36 3 -38 1z"/>
<path d="M16900 20516 c0 -2 7 -6 15 -10 8 -3 15 -1 15 4 0 6 -7 10 -15 10 -8
0 -15 -2 -15 -4z"/>
<path d="M12995 20490 c-19 -8 -19 -9 3 -9 12 -1 22 4 22 9 0 6 -1 10 -2 9 -2
0 -12 -4 -23 -9z"/>
<path d="M17217 20435 c21 -28 46 -41 51 -26 2 6 8 9 13 5 5 -3 9 -1 9 4 0 6
-7 12 -15 16 -8 3 -15 1 -15 -4 0 -6 -4 -10 -10 -10 -5 0 -9 5 -7 11 1 6 -8
15 -21 20 -22 8 -22 8 -5 -16z"/>
<path d="M12730 20411 c0 -14 6 -19 20 -18 11 1 20 5 20 9 0 4 3 7 8 7 18 -3
33 2 28 9 -2 4 -21 9 -40 10 -30 2 -36 -1 -36 -17z"/>
<path d="M17533 20357 c5 -15 37 -22 37 -9 0 5 -9 12 -21 15 -13 3 -19 1 -16
-6z"/>
<path d="M12316 20305 c-3 -10 -19 -15 -44 -15 -23 0 -45 -6 -52 -15 -7 -9
-15 -13 -17 -11 -5 5 -43 -25 -43 -34 0 -4 14 -5 30 -2 17 2 30 10 30 19 0 8
5 11 11 8 17 -11 109 39 109 59 0 12 -18 5 -24 -9z"/>
<path d="M17790 20274 c0 -8 5 -12 10 -9 6 4 8 11 5 16 -9 14 -15 11 -15 -7z"/>
<path d="M14483 20233 c-21 -8 -14 -33 10 -35 67 -5 106 10 91 34 -6 9 -81 10
-101 1z"/>
<path d="M14744 20225 c8 -10 13 -10 19 -1 5 8 9 8 15 0 5 -9 10 -9 18 1 9 9
4 12 -26 12 -30 0 -35 -3 -26 -12z"/>
<path d="M15355 20230 c-30 -5 -34 -8 -15 -10 14 -1 29 -2 34 -1 5 1 23 -3 39
-9 23 -8 33 -7 39 2 4 8 8 9 8 2 0 -6 10 -10 23 -9 12 1 22 8 22 16 0 16 -84
21 -150 9z"/>
<path d="M12066 20214 c-9 -23 -8 -24 14 -24 11 0 23 7 26 15 4 8 10 13 14 10
5 -3 11 -1 15 5 4 6 -8 10 -28 10 -23 0 -37 -6 -41 -16z"/>
<path d="M15178 20213 c7 -3 16 -2 19 1 4 3 -2 6 -13 5 -11 0 -14 -3 -6 -6z"/>
<path d="M15666 20205 c-6 -17 20 -27 80 -29 24 -1 46 -5 50 -9 4 -4 13 -2 21
4 8 7 18 8 26 2 17 -13 69 -1 59 14 -9 15 -59 24 -154 29 -59 2 -77 0 -82 -11z"/>
<path d="M14157 20203 c-4 -3 -7 -13 -7 -22 1 -13 3 -13 11 2 11 19 8 33 -4
20z"/>
<path d="M14190 20206 c0 -3 9 -10 20 -16 11 -6 20 -8 20 -6 0 3 -9 10 -20 16
-11 6 -20 8 -20 6z"/>
<path d="M16076 20191 c-3 -4 -22 -7 -41 -5 -51 4 -40 -18 16 -33 24 -6 44
-12 44 -13 0 -1 22 -3 48 -5 39 -2 50 1 58 17 10 18 8 19 -23 17 -20 -2 -44 4
-58 14 -28 19 -36 21 -44 8z"/>
<path d="M11946 20175 c7 -18 30 -20 37 -2 3 8 -4 14 -19 15 -17 1 -22 -2 -18
-13z"/>
<path d="M18077 20170 c3 -11 9 -17 14 -15 10 7 1 35 -11 35 -5 0 -6 -9 -3
-20z"/>
<path d="M14060 20170 c0 -12 47 -14 54 -2 2 4 -9 9 -25 10 -16 1 -29 -2 -29
-8z"/>
<path d="M18103 20157 c-3 -5 1 -13 8 -18 20 -13 25 -11 26 9 2 19 -23 26 -34
9z"/>
<path d="M11854 20149 c-11 -18 11 -32 25 -16 9 12 8 16 -3 20 -9 4 -18 1 -22
-4z"/>
<path d="M16281 20150 c-12 -7 -12 -10 0 -22 10 -9 30 -11 69 -7 63 7 63 10 1
14 -24 1 -46 7 -50 13 -4 7 -12 8 -20 2z"/>
<path d="M13608 20143 c-10 -2 -18 -9 -18 -14 0 -5 -7 -9 -16 -9 -8 0 -23 -7
-31 -16 -13 -12 -13 -15 -2 -13 8 1 22 -1 31 -5 10 -5 41 0 75 12 l58 20 -37
16 c-21 9 -39 15 -40 15 -2 -1 -11 -3 -20 -6z"/>
<path d="M13825 20140 c-3 -5 -1 -10 4 -10 6 0 11 5 11 10 0 6 -2 10 -4 10 -3
0 -8 -4 -11 -10z"/>
<path d="M16492 20123 c-28 -4 -30 -6 -18 -19 8 -8 26 -15 40 -16 14 -1 26 -6
26 -10 0 -4 9 -8 20 -8 11 0 20 -4 20 -10 0 -5 17 -8 38 -7 20 2 37 8 37 13 0
5 -4 8 -9 6 -5 -2 -3 5 5 14 8 10 9 15 3 11 -20 -11 -64 -16 -64 -6 0 6 -4 8
-9 5 -4 -3 -16 3 -26 14 -10 11 -21 19 -24 18 -3 0 -21 -3 -39 -5z"/>
<path d="M16418 20113 c7 -3 16 -2 19 1 4 3 -2 6 -13 5 -11 0 -14 -3 -6 -6z"/>
<path d="M11700 20090 c-8 -5 -10 -10 -5 -11 60 -8 64 -7 58 7 -6 16 -31 18
-53 4z"/>
<path d="M13418 20093 c-9 -2 -18 -10 -21 -16 -3 -9 5 -12 29 -9 34 4 45 16
22 24 -7 2 -20 3 -30 1z"/>
<path d="M13375 20079 c-4 -6 -5 -12 -2 -15 2 -3 7 2 10 11 7 17 1 20 -8 4z"/>
<path d="M18320 20080 c-22 -14 -3 -26 58 -37 42 -8 52 -7 52 3 0 16 -50 44
-77 44 -10 0 -25 -5 -33 -10z"/>
<path d="M13257 20063 c-10 -9 -9 -23 1 -23 5 0 9 7 9 15 0 17 -1 18 -10 8z"/>
<path d="M16850 20050 c-8 -5 -11 -12 -8 -15 11 -12 78 -17 78 -7 0 15 -37 21
-51 8 -9 -8 -11 -7 -6 7 7 20 7 20 -13 7z"/>
<path d="M16954 20026 c-16 -17 5 -33 49 -39 27 -4 37 -1 37 9 0 8 -10 14 -25
14 -14 0 -25 4 -25 9 0 15 -24 19 -36 7z"/>
<path d="M11535 20019 c-4 -6 -5 -13 -2 -16 7 -7 27 6 27 18 0 12 -17 12 -25
-2z"/>
<path d="M18470 20011 c0 -11 31 -24 39 -16 3 3 -1 10 -9 15 -19 12 -30 12
-30 1z"/>
<path d="M12903 19983 c-17 -18 -19 -23 -7 -23 8 0 13 -4 10 -9 -8 -13 37 0
46 13 12 17 9 25 -9 34 -13 6 -24 2 -40 -15z"/>
<path d="M17057 20004 c-14 -14 -6 -19 29 -22 23 -1 33 2 29 9 -4 6 -13 8 -20
5 -7 -2 -17 0 -22 5 -5 5 -12 6 -16 3z"/>
<path d="M18571 19986 c-8 -9 -7 -13 2 -14 6 -1 26 -4 42 -8 26 -6 28 -5 17 8
-17 22 -49 28 -61 14z"/>
<path d="M11400 19959 c0 -5 -4 -8 -9 -4 -5 3 -13 0 -17 -6 -4 -8 -3 -9 4 -5
7 4 12 2 12 -5 0 -8 3 -9 13 0 8 6 16 9 19 6 2 -3 5 2 5 10 0 8 -6 15 -14 15
-7 0 -13 -5 -13 -11z"/>
<path d="M11345 19941 c-3 -5 -1 -12 5 -16 5 -3 10 1 10 9 0 18 -6 21 -15 7z"/>
<path d="M17218 19937 c17 -6 32 -14 32 -19 0 -5 5 -6 10 -3 6 3 10 2 10 -4 0
-12 76 -34 90 -26 15 9 -1 36 -19 33 -9 -2 -23 4 -33 14 -12 12 -32 17 -70 16
-50 -2 -51 -2 -20 -11z"/>
<path d="M18691 19929 c11 -22 29 -25 29 -5 0 7 -9 16 -20 19 -17 4 -18 2 -9
-14z"/>
<path d="M11310 19929 c0 -6 -8 -9 -17 -6 -21 4 -73 -19 -73 -33 0 -6 -6 -10
-13 -10 -7 0 -19 -9 -27 -19 -9 -14 -22 -19 -44 -16 -34 5 -76 -17 -76 -39 0
-15 37 -29 45 -16 3 5 19 11 35 15 17 4 28 10 26 14 -8 12 34 43 49 37 8 -3
15 -2 17 2 2 5 20 14 42 22 35 14 71 60 46 60 -6 0 -10 -5 -10 -11z"/>
<path d="M18806 19902 c-3 -5 1 -15 9 -22 16 -14 20 -3 6 19 -5 8 -11 9 -15 3z"/>
<path d="M12513 19883 c-7 -3 -13 -11 -13 -19 0 -8 -5 -14 -12 -14 -9 0 -9 -3
0 -12 9 -9 16 -7 31 6 11 10 25 15 30 11 6 -3 11 1 11 10 0 9 5 13 10 10 6 -3
10 -2 10 3 0 9 -45 12 -67 5z"/>
<path d="M17400 19879 c0 -5 5 -7 10 -4 6 3 10 8 10 11 0 2 -4 4 -10 4 -5 0
-10 -5 -10 -11z"/>
<path d="M17676 19813 c-23 -23 26 -53 85 -53 43 0 40 35 -3 48 -38 11 -74 13
-82 5z"/>
<path d="M12330 19797 c0 -5 -4 -6 -8 -3 -4 2 -14 1 -21 -3 -9 -6 -5 -10 13
-13 14 -3 26 -1 26 3 0 5 9 9 20 9 11 0 20 4 20 9 0 5 -11 8 -25 7 -14 0 -25
-5 -25 -9z"/>
<path d="M10805 19681 c-10 -17 9 -20 30 -5 18 14 18 14 -2 14 -12 0 -24 -4
-28 -9z"/>
<path d="M10735 19651 c-48 -22 -92 -66 -76 -76 6 -3 11 -1 11 5 0 6 5 8 10 5
6 -3 10 -1 10 4 0 6 5 11 11 11 5 0 7 -5 4 -11 -7 -10 28 7 52 26 37 29 43 37
38 46 -8 12 -14 11 -60 -10z"/>
<path d="M11803 19640 c-21 -8 -25 -16 -22 -36 0 -4 -4 -10 -11 -14 -6 -4 5
-7 25 -8 19 -1 35 3 35 8 0 6 9 10 20 10 25 0 38 29 19 41 -17 11 -37 10 -66
-1z"/>
<path d="M10621 19571 c-10 -6 -9 -10 3 -14 8 -3 18 -2 21 3 8 13 -9 20 -24
11z"/>
<path d="M11700 19568 c0 -4 -3 -7 -7 -7 -5 1 -17 1 -28 0 -18 -2 -18 -3 4
-14 19 -9 25 -9 29 1 2 6 10 12 17 12 8 0 16 4 20 9 3 6 -4 9 -15 8 -11 -1
-20 -5 -20 -9z"/>
<path d="M11558 19513 c-22 -5 -24 -23 -3 -23 8 0 15 6 15 13 0 8 4 7 10 -3 6
-9 10 -10 10 -3 0 15 -11 20 -32 16z"/>
<path d="M10380 19445 c-7 -8 -20 -15 -29 -16 -10 0 -12 -2 -3 -6 6 -2 10 -8
8 -12 -3 -4 1 -8 9 -8 8 0 15 7 15 14 0 8 4 12 9 8 13 -8 21 8 12 23 -6 10
-11 9 -21 -3z"/>
<path d="M18590 19449 c0 -5 5 -7 10 -4 6 3 10 8 10 11 0 2 -4 4 -10 4 -5 0
-10 -5 -10 -11z"/>
<path d="M18740 19402 c0 -12 19 -26 26 -19 2 2 -2 10 -11 17 -9 8 -15 8 -15
2z"/>
<path d="M19905 19291 c-9 -15 15 -58 41 -72 13 -7 24 -18 24 -26 0 -7 6 -14
13 -15 28 -3 67 -5 67 -3 0 2 -23 26 -51 54 -57 58 -85 76 -94 62z"/>
<path d="M18978 19243 c7 -3 16 -2 19 1 4 3 -2 6 -13 5 -11 0 -14 -3 -6 -6z"/>
<path d="M10890 19200 c-14 -11 -19 -20 -12 -20 7 0 10 -4 7 -10 -3 -6 5 -10
19 -10 17 0 29 9 38 28 13 26 13 28 -6 30 -12 0 -32 -8 -46 -18z"/>
<path d="M19100 19211 c0 -5 7 -11 14 -14 10 -4 13 -1 9 9 -6 15 -23 19 -23 5z"/>
<path d="M10000 19200 c0 -5 -7 -10 -15 -10 -8 0 -19 -10 -26 -22 -10 -18 -9
-20 6 -14 9 3 27 9 40 12 30 7 41 44 14 44 -10 0 -19 -4 -19 -10z"/>
<path d="M20090 19145 c0 -16 16 -20 24 -6 3 5 -1 11 -9 15 -9 3 -15 0 -15 -9z"/>
<path d="M10793 19136 c-27 -13 -30 -36 -5 -36 21 0 42 18 42 37 0 15 -6 15
-37 -1z"/>
<path d="M19207 19137 c-3 -8 14 -24 44 -41 28 -15 49 -22 49 -16 0 7 7 9 18
6 12 -5 10 0 -8 18 -14 14 -36 26 -50 28 -14 2 -30 7 -36 11 -7 4 -14 1 -17
-6z"/>
<path d="M19362 19057 c2 -14 10 -22 25 -23 18 -1 20 1 10 17 -18 29 -39 33
-35 6z"/>
<path d="M10664 19043 c-7 -8 -17 -14 -21 -14 -45 0 -84 -32 -64 -52 10 -9 11
-8 5 6 -6 15 -3 17 19 11 18 -4 32 -1 43 10 8 9 20 13 26 10 7 -4 8 -2 4 4 -4
7 -1 12 7 12 8 0 17 6 20 13 7 18 -21 18 -39 0z"/>
<path d="M9765 19029 c-4 -6 -4 -13 0 -17 4 -4 10 -1 12 6 3 6 10 9 15 6 7 -4
8 -2 4 4 -9 15 -23 15 -31 1z"/>
<path d="M20270 19021 c0 -10 7 -22 16 -25 12 -5 15 -2 10 10 -3 8 -6 20 -6
25 0 5 -4 9 -10 9 -5 0 -10 -9 -10 -19z"/>
<path d="M9630 18942 c-18 -14 -41 -27 -49 -29 -15 -2 -43 -30 -59 -59 -4 -7
-19 -14 -33 -16 -30 -4 -89 -47 -89 -65 0 -7 -8 -17 -17 -22 -14 -8 -15 -10
-3 -11 13 0 13 -1 0 -10 -12 -8 -12 -10 -1 -10 7 0 24 11 37 25 13 14 32 25
43 25 13 0 27 12 36 30 9 17 22 30 30 30 8 0 15 5 15 11 0 6 7 8 16 5 8 -3 12
-2 9 4 -3 6 4 10 17 10 26 0 71 48 63 67 -2 8 -1 12 4 9 8 -5 25 23 18 30 -1
2 -18 -9 -37 -24z"/>
<path d="M19525 18960 c-7 -12 10 -30 48 -49 15 -8 27 -21 27 -28 0 -8 4 -12
9 -8 6 3 14 -3 20 -12 6 -10 11 -14 11 -10 0 5 13 -1 29 -12 16 -12 33 -21 39
-21 5 0 15 -7 22 -15 7 -8 16 -12 21 -9 5 3 12 -2 15 -10 8 -22 25 -10 17 12
-10 30 -34 51 -64 57 -16 4 -29 11 -29 15 0 5 -16 20 -35 33 -19 13 -32 26
-29 29 7 8 -55 22 -81 19 -17 -2 -17 0 -5 8 9 7 10 11 3 11 -6 0 -15 -5 -18
-10z"/>
<path d="M9685 18950 c-3 -5 -1 -10 4 -10 6 0 11 5 11 10 0 6 -2 10 -4 10 -3
0 -8 -4 -11 -10z"/>
<path d="M20420 18912 c0 -15 39 -41 59 -39 15 1 17 4 9 14 -6 7 -17 13 -24
13 -8 0 -14 5 -14 10 0 6 -7 10 -15 10 -8 0 -15 -3 -15 -8z"/>
<path d="M10352 18855 c-11 -12 -10 -15 3 -15 8 0 15 7 15 15 0 18 -2 18 -18
0z"/>
<path d="M10283 18823 c-24 -8 -43 -19 -43 -24 0 -6 -4 -8 -9 -4 -5 3 -12 1
-15 -4 -4 -5 -1 -13 4 -16 16 -10 70 15 70 31 0 7 6 11 14 8 8 -3 17 0 21 6
11 18 3 18 -42 3z"/>
<path d="M19871 18734 l-23 -12 23 -13 c13 -8 29 -14 36 -14 6 0 27 -17 46
-38 20 -20 43 -37 51 -37 9 0 16 -6 16 -14 0 -20 15 -28 58 -31 21 -2 31 -1
24 2 -6 2 -10 9 -6 14 3 5 -2 12 -10 15 -9 3 -14 9 -11 14 6 9 -44 32 -55 25
-4 -3 -11 2 -14 11 -4 10 -14 14 -26 11 -13 -3 -24 1 -30 14 -6 10 -8 19 -5
19 7 0 -12 19 -35 36 -11 8 -21 7 -39 -2z"/>
<path d="M9320 18701 c0 -5 -18 -17 -40 -27 -21 -10 -37 -21 -34 -26 5 -7 -9
-12 -28 -9 -10 1 -21 -39 -13 -47 4 -4 10 -1 12 6 3 6 10 12 16 12 16 1 67 46
67 60 0 6 5 8 10 5 6 -3 10 -1 10 5 0 6 5 8 10 5 6 -3 10 1 10 9 0 9 -4 16
-10 16 -5 0 -10 -4 -10 -9z"/>
<path d="M10107 18693 c-13 -12 -7 -22 11 -20 10 0 19 7 19 14 0 14 -19 18
-30 6z"/>
<path d="M9094 18529 c-30 -9 -48 -32 -57 -77 l-5 -22 36 21 c42 23 78 67 66
78 -5 5 -23 4 -40 0z"/>
<path d="M20905 18530 c-3 -5 1 -10 9 -10 8 0 18 5 21 10 3 6 -1 10 -9 10 -8
0 -18 -4 -21 -10z"/>
<path d="M20200 18496 c0 -9 5 -16 10 -16 6 0 10 4 10 9 0 6 -4 13 -10 16 -5
3 -10 -1 -10 -9z"/>
<path d="M20930 18506 c0 -2 8 -10 18 -17 15 -13 16 -12 3 4 -13 16 -21 21
-21 13z"/>
<path d="M20975 18469 c-10 -14 -1 -21 19 -13 9 3 13 10 10 15 -7 12 -21 11
-29 -2z"/>
<path d="M21000 18439 c0 -5 5 -7 10 -4 6 3 10 8 10 11 0 2 -4 4 -10 4 -5 0
-10 -5 -10 -11z"/>
<path d="M8974 18421 c2 -3 -2 -12 -10 -19 -8 -7 -14 -10 -14 -6 0 3 -7 0 -16
-7 -14 -12 -14 -14 3 -20 26 -9 40 -1 51 30 8 21 7 28 -4 28 -7 0 -12 -3 -10
-6z"/>
<path d="M9678 18393 c-27 -31 -10 -44 28 -21 36 21 45 31 17 21 -11 -4 -14
-3 -9 5 11 19 -19 14 -36 -5z"/>
<path d="M21090 18370 c0 -17 40 -61 40 -44 0 5 5 1 11 -8 5 -10 14 -18 19
-18 15 0 12 27 -5 44 -8 8 -15 19 -15 24 0 5 -11 12 -25 14 -19 4 -25 1 -25
-12z"/>
<path d="M20376 18344 c15 -12 33 -20 40 -17 6 2 15 -1 19 -6 7 -12 25 -5 25
10 0 5 -9 9 -19 9 -11 0 -26 7 -34 14 -8 8 -24 14 -37 13 -21 -1 -21 -2 6 -23z"/>
<path d="M9602 18305 c-32 -37 -28 -63 4 -30 9 8 12 15 7 15 -4 0 0 7 10 14
10 8 14 17 9 20 -5 3 -19 -6 -30 -19z"/>
<path d="M20471 18309 c-1 -9 8 -27 19 -40 12 -12 30 -37 41 -55 11 -18 26
-35 35 -38 8 -3 13 -9 10 -14 -2 -4 10 -9 27 -10 21 -1 27 1 19 7 -8 4 -13 12
-13 17 1 5 -3 9 -8 9 -13 0 -45 35 -54 58 -4 11 -12 15 -18 11 -8 -4 -9 -3 -5
4 3 6 -3 16 -14 22 -11 6 -17 16 -14 22 4 6 3 8 -4 4 -5 -3 -13 0 -15 6 -4 9
-6 7 -6 -3z"/>
<path d="M8835 18287 c-14 -11 -15 -16 -5 -22 11 -7 29 9 30 28 0 10 -3 9 -25
-6z"/>
<path d="M9510 18220 c-8 -5 -12 -12 -9 -15 4 -3 12 1 19 10 14 17 11 19 -10
5z"/>
<path d="M21260 18200 c0 -5 9 -15 20 -22 11 -7 20 -20 20 -30 0 -20 37 -48
62 -48 10 0 18 7 18 15 0 19 -38 58 -49 51 -4 -3 -19 6 -31 19 -25 26 -40 32
-40 15z"/>
<path d="M8596 18060 l-28 -28 33 2 c29 1 34 6 37 29 4 33 -5 33 -42 -3z"/>
<path d="M21417 18050 c3 -10 12 -25 21 -32 13 -11 14 -11 7 2 -8 13 -7 13 8
1 23 -18 22 2 0 29 -22 26 -43 26 -36 0z"/>
<path d="M20810 17990 c0 -5 9 -14 20 -20 11 -6 27 -27 35 -47 12 -28 18 -34
27 -25 15 15 -8 62 -30 62 -9 0 -12 3 -9 7 9 9 -12 33 -29 33 -8 0 -14 -4 -14
-10z"/>
<path d="M8507 17960 c-9 -11 -14 -27 -10 -35 5 -14 9 -13 29 6 12 11 20 27
17 35 -7 19 -15 18 -36 -6z"/>
<path d="M9215 17970 c-3 -6 1 -7 9 -4 18 7 21 14 7 14 -6 0 -13 -4 -16 -10z"/>
<path d="M9167 17953 c-4 -3 -7 -11 -7 -17 0 -6 5 -5 12 2 6 6 9 14 7 17 -3 3
-9 2 -12 -2z"/>
<path d="M21540 17920 c-12 -7 -11 -12 4 -29 24 -27 37 -27 33 -1 -5 29 -19
41 -37 30z"/>
<path d="M20907 17894 c-8 -8 31 -54 45 -54 4 0 8 9 8 19 0 13 -6 18 -17 17
-10 -2 -20 3 -23 11 -3 8 -9 11 -13 7z"/>
<path d="M8383 17834 c-7 -15 -10 -31 -7 -35 6 -11 54 31 54 48 0 23 -35 14
-47 -13z"/>
<path d="M21600 17845 c7 -8 19 -15 27 -15 8 0 11 -4 8 -10 -3 -5 -2 -10 4
-10 5 0 12 -8 16 -18 6 -20 45 -42 73 -42 15 1 15 2 -1 11 -10 6 -22 22 -28
36 -8 21 -12 23 -24 13 -12 -10 -16 -7 -25 15 -5 14 -14 24 -19 20 -5 -3 -12
-1 -16 5 -3 5 -11 10 -17 10 -7 0 -6 -6 2 -15z"/>
<path d="M20960 17820 c0 -5 5 -10 11 -10 5 0 7 5 4 10 -3 6 -8 10 -11 10 -2
0 -4 -4 -4 -10z"/>
<path d="M9001 17782 c-8 -15 -5 -18 15 -20 18 -1 24 3 24 18 0 25 -26 26 -39
2z"/>
<path d="M8353 17783 c4 -6 0 -13 -8 -17 -17 -6 -21 -26 -5 -26 16 0 32 38 18
46 -6 4 -8 3 -5 -3z"/>
<path d="M21010 17781 c0 -19 70 -81 91 -81 38 0 17 27 -53 69 -21 13 -38 18
-38 12z"/>
<path d="M8882 17665 c-16 -19 -3 -19 22 0 14 11 16 15 5 15 -8 -1 -20 -7 -27
-15z"/>
<path d="M21836 17627 c3 -10 9 -15 12 -12 3 3 0 11 -7 18 -10 9 -11 8 -5 -6z"/>
<path d="M8199 17613 c-1 -5 -1 -12 0 -16 1 -5 -2 -6 -6 -4 -10 6 -49 -21 -41
-28 12 -12 58 15 58 35 0 19 -9 29 -11 13z"/>
<path d="M21195 17609 c-4 -6 -5 -12 -2 -15 2 -3 7 2 10 11 7 17 1 20 -8 4z"/>
<path d="M21265 17520 c3 -5 13 -10 21 -10 8 0 14 -6 14 -14 0 -7 9 -16 20
-19 27 -7 25 -1 -6 28 -26 24 -61 35 -49 15z"/>
<path d="M8055 17477 c-17 -21 -14 -47 5 -44 31 5 52 28 39 43 -14 17 -31 17
-44 1z"/>
<path d="M21981 17433 c17 -34 43 -70 58 -79 23 -15 24 -15 13 -1 -8 9 -11 20
-9 24 3 5 -16 33 -43 63 l-49 55 30 -62z"/>
<path d="M21430 17340 c8 -5 11 -10 6 -10 -4 0 2 -9 15 -21 13 -11 18 -18 12
-14 -18 9 -16 0 2 -15 12 -10 16 -7 25 16 9 24 8 31 -6 41 -10 7 -29 13 -43
13 -21 0 -23 -2 -11 -10z"/>
<path d="M22115 17270 c-8 -13 12 -50 27 -50 9 0 9 3 0 12 -16 16 -15 31 1 22
8 -5 8 -2 -2 9 -16 20 -18 20 -26 7z"/>
<path d="M8464 17219 c-3 -6 -2 -15 2 -19 12 -12 38 5 30 19 -9 14 -23 14 -32
0z"/>
<path d="M8437 17176 c-4 -10 -1 -13 8 -9 8 3 12 9 9 14 -7 12 -11 11 -17 -5z"/>
<path d="M7820 17169 c0 -6 -18 -29 -40 -50 -22 -22 -35 -39 -28 -39 7 0 -4
-15 -23 -32 -23 -23 -33 -40 -31 -55 2 -13 7 -23 11 -23 12 0 101 93 101 105
0 6 11 26 24 45 19 29 21 37 10 48 -16 15 -24 15 -24 1z"/>
<path d="M22220 17119 c0 -5 5 -7 10 -4 6 3 10 8 10 11 0 2 -4 4 -10 4 -5 0
-10 -5 -10 -11z"/>
<path d="M8390 17090 c0 -5 -7 -7 -15 -3 -16 6 -44 -22 -45 -44 0 -24 39 -13
59 16 23 32 26 41 11 41 -5 0 -10 -4 -10 -10z"/>
<path d="M8304 16975 c-4 -8 -10 -12 -15 -9 -5 3 -9 -2 -9 -11 0 -9 4 -13 10
-10 12 7 33 45 25 45 -3 0 -8 -7 -11 -15z"/>
<path d="M21755 16960 c4 -19 10 -37 14 -40 5 -3 18 -23 29 -45 13 -26 36 -49
64 -64 27 -15 38 -18 30 -9 -9 12 -10 17 -1 20 7 2 -6 25 -31 53 -23 28 -53
63 -66 79 -13 15 -24 24 -24 20 0 -5 -5 -2 -10 6 -8 11 -9 5 -5 -20z"/>
<path d="M22438 16817 c11 -48 38 -62 37 -21 0 18 -7 29 -21 35 -19 6 -21 5
-16 -14z"/>
<path d="M7505 16730 c-8 -16 -16 -33 -16 -37 0 -5 -9 -11 -20 -15 -11 -4 -17
-12 -14 -18 3 -6 -4 -14 -17 -19 -14 -6 -17 -10 -8 -11 12 -1 11 -3 -2 -8 -12
-5 -15 -11 -8 -21 7 -12 12 -10 29 10 48 57 69 86 85 117 14 28 15 32 2 32 -9
0 -22 -13 -31 -30z"/>
<path d="M22517 16725 c-3 -7 1 -19 8 -25 8 -7 13 -16 10 -20 -3 -5 2 -15 10
-23 8 -9 15 -22 15 -30 0 -19 42 -30 52 -14 4 6 1 15 -7 20 -8 4 -15 15 -15
23 0 8 -7 17 -16 21 -8 3 -13 11 -11 17 3 6 -6 19 -18 28 -19 14 -24 15 -28 3z"/>
<path d="M8064 16695 c-20 -30 -11 -49 16 -33 24 15 32 45 14 52 -8 3 -21 -5
-30 -19z"/>
<path d="M22635 16519 c6 -30 38 -82 50 -81 19 2 16 31 -7 66 -25 40 -49 48
-43 15z"/>
<path d="M7385 16521 c-3 -5 -2 -12 3 -15 5 -3 9 1 9 9 0 17 -3 19 -12 6z"/>
<path d="M7335 16476 c-16 -11 -16 -14 -2 -19 8 -3 21 0 27 8 15 19 -3 27 -25
11z"/>
<path d="M7900 16456 c-32 -14 -41 -27 -29 -42 6 -8 6 -14 0 -18 -5 -3 -12 0
-14 6 -4 8 -6 7 -6 -4 -1 -9 2 -19 7 -22 10 -6 36 16 40 33 2 8 10 20 19 26
25 18 12 34 -17 21z"/>
<path d="M22130 16431 c0 -5 7 -14 15 -21 8 -7 15 -17 15 -22 0 -11 29 -42 34
-37 12 14 15 48 4 56 -23 17 -68 33 -68 24z"/>
<path d="M7280 16380 c0 -5 7 -7 15 -4 8 4 15 8 15 10 0 2 -7 4 -15 4 -8 0
-15 -4 -15 -10z"/>
<path d="M22775 16317 c0 -33 26 -69 57 -80 26 -9 13 43 -17 70 -14 12 -25 27
-25 33 0 5 -4 10 -8 10 -4 0 -8 -15 -7 -33z"/>
<path d="M7225 16294 c-17 -13 -18 -16 -4 -29 14 -14 17 -13 27 9 14 31 4 39
-23 20z"/>
<path d="M22252 16251 c-16 -10 -6 -38 18 -51 14 -7 19 -5 22 8 6 22 -23 53
-40 43z"/>
<path d="M7162 16200 c-12 -12 -22 -31 -22 -43 0 -12 -9 -37 -20 -55 -23 -37
-24 -42 -10 -42 6 0 9 3 8 8 -3 9 30 61 58 90 13 13 22 32 21 43 -2 24 -8 24
-35 -1z"/>
<path d="M22863 16178 c-2 -26 33 -101 58 -124 10 -9 19 -30 19 -45 0 -18 13
-41 40 -69 32 -33 40 -38 40 -22 0 10 -13 39 -30 63 -16 24 -30 47 -30 51 0 4
-16 41 -35 82 -37 76 -60 100 -62 64z"/>
<path d="M7735 16180 c-3 -5 -1 -10 4 -10 6 0 11 5 11 10 0 6 -2 10 -4 10 -3
0 -8 -4 -11 -10z"/>
<path d="M7040 15950 c0 -13 7 -20 20 -20 14 0 20 7 20 21 0 19 -2 20 -17 8
-11 -10 -14 -10 -9 -1 4 6 2 12 -3 12 -6 0 -11 -9 -11 -20z"/>
<path d="M7601 15952 c-1 -7 -5 -11 -11 -7 -11 7 -44 -41 -36 -54 3 -5 -1 -12
-9 -15 -17 -6 -35 -46 -28 -59 10 -16 85 73 80 93 -3 11 0 21 6 23 5 1 7 10 4
18 -4 10 -6 10 -6 1z"/>
<path d="M22460 15913 c0 -6 5 -15 10 -18 6 -4 8 -11 5 -16 -10 -15 2 -10 16
8 8 10 9 14 2 10 -7 -4 -16 0 -22 10 -6 10 -11 13 -11 6z"/>
<path d="M23040 15830 c0 -5 5 -10 11 -10 5 0 7 5 4 10 -3 6 -8 10 -11 10 -2
0 -4 -4 -4 -10z"/>
<path d="M23075 15791 c-3 -5 -1 -12 4 -15 5 -4 8 -14 7 -23 -2 -10 5 -26 15
-37 10 -10 16 -23 13 -28 -3 -4 0 -8 7 -8 8 0 8 -4 -1 -15 -7 -8 -8 -15 -3
-15 5 0 9 -10 10 -22 1 -11 6 -24 11 -27 13 -8 37 -54 34 -64 -1 -5 2 -6 8 -2
11 7 6 47 -10 90 -5 14 -14 24 -18 21 -4 -2 -9 6 -10 19 -2 23 -49 135 -57
135 -2 0 -6 -4 -10 -9z"/>
<path d="M7480 15785 c-8 -45 -8 -47 2 -37 5 5 8 18 5 28 -3 11 -6 15 -7 9z"/>
<path d="M6927 15728 c-30 -30 -36 -54 -11 -44 9 3 18 6 20 6 2 0 4 6 4 14 0
8 5 16 12 18 6 2 9 10 6 18 -3 11 -11 8 -31 -12z"/>
<path d="M22560 15700 c0 -5 7 -10 15 -10 8 0 15 5 15 10 0 6 -7 10 -15 10 -8
0 -15 -4 -15 -10z"/>
<path d="M22585 15648 c1 -18 13 -40 33 -58 30 -27 44 -30 37 -7 -2 7 -6 24
-9 39 -4 16 -18 32 -34 41 -28 14 -29 13 -27 -15z"/>
<path d="M7407 15626 c-3 -8 -2 -18 3 -21 13 -8 20 9 11 24 -6 10 -10 9 -14
-3z"/>
<path d="M6810 15528 c-30 -45 -33 -51 -22 -44 6 3 12 1 14 -5 2 -7 13 -9 26
-5 27 9 41 54 21 67 -20 12 -22 12 -39 -13z"/>
<path d="M22656 15534 c-3 -8 -3 -21 1 -29 8 -24 71 -85 85 -85 9 0 10 3 2 8
-6 4 -14 17 -18 30 -4 12 -11 22 -16 22 -5 0 -7 6 -4 13 2 7 -6 22 -20 34 -20
17 -26 19 -30 7z"/>
<path d="M7333 15501 c-22 -33 -26 -58 -11 -67 13 -8 51 33 43 46 -3 5 -1 11
5 15 15 9 12 32 -5 32 -8 0 -23 -12 -32 -26z"/>
<path d="M23220 15449 c0 -12 4 -17 11 -13 8 4 9 0 4 -15 -5 -17 -3 -20 11
-14 11 4 15 3 10 -5 -3 -6 2 -15 11 -21 10 -6 15 -11 10 -11 -4 0 -1 -10 8
-23 8 -13 12 -28 8 -33 -4 -5 -2 -4 6 3 8 7 10 16 5 25 -5 7 -9 19 -10 27 -2
7 -12 23 -23 35 -12 12 -21 29 -21 38 0 9 -7 18 -15 22 -10 4 -15 -1 -15 -15z"/>
<path d="M6754 15382 c-4 -9 -6 -21 -5 -27 1 -5 -6 -15 -15 -22 -10 -7 -14
-13 -10 -13 4 0 1 -7 -7 -15 -9 -8 -13 -23 -10 -34 4 -17 8 -18 24 -8 11 7 17
18 14 24 -2 7 0 13 6 13 17 0 39 27 39 49 0 12 -5 21 -11 21 -5 0 -8 4 -4 9 3
5 1 12 -4 15 -5 3 -12 -2 -17 -12z"/>
<path d="M13613 15276 c-62 -52 -66 -152 -8 -206 22 -21 40 -25 138 -32 61 -5
778 -12 1592 -16 l1480 -7 5 -280 c4 -245 7 -284 22 -307 20 -30 71 -48 112
-41 37 7 74 55 81 106 4 23 5 193 3 377 -3 362 -6 379 -57 399 -16 6 -534 12
-1421 15 -767 3 -1512 9 -1655 12 l-260 7 -32 -27z"/>
<path d="M23338 15239 c-3 -8 2 -20 9 -28 10 -10 11 -16 3 -21 -6 -4 -8 -14
-4 -23 3 -9 10 -15 14 -12 9 5 25 -48 23 -77 0 -10 6 -18 14 -18 9 0 13 6 10
14 -3 8 -11 33 -17 55 -16 59 -47 125 -52 110z"/>
<path d="M7188 15203 c-14 -3 -18 -15 -18 -46 0 -38 1 -40 16 -25 13 12 32 82
21 77 -1 -1 -10 -3 -19 -6z"/>
<path d="M22837 15147 c4 -7 8 -14 8 -17 9 -63 39 -106 55 -80 4 7 4 20 0 29
-5 9 -13 30 -20 46 -6 19 -18 31 -31 32 -13 1 -17 -2 -12 -10z"/>
<path d="M7142 15074 c-12 -8 -22 -25 -22 -37 l1 -22 17 21 c10 11 23 19 29
17 7 -3 9 4 6 16 -6 25 -4 25 -31 5z"/>
<path d="M6602 15016 c-11 -25 -7 -36 15 -36 14 0 18 46 4 54 -4 3 -13 -5 -19
-18z"/>
<path d="M10070 15021 c-100 -16 -167 -78 -248 -231 -39 -76 -166 -280 -208
-335 -12 -16 -77 -118 -145 -225 -167 -268 -196 -313 -256 -403 -29 -43 -53
-82 -53 -86 0 -5 -27 -53 -61 -106 -33 -53 -68 -117 -76 -142 -30 -88 -5 -174
88 -298 27 -36 49 -68 49 -71 0 -10 417 -617 442 -645 26 -28 218 -307 218
-317 0 -11 74 -117 109 -156 14 -16 50 -39 79 -52 l53 -24 568 0 569 0 64 -87
c65 -89 286 -414 347 -510 l33 -53 -105 -157 c-57 -87 -144 -221 -192 -298
-49 -77 -106 -166 -127 -197 l-39 -58 -497 0 c-273 0 -514 -4 -535 -9 -55 -13
-140 -83 -163 -133 -17 -38 -19 -68 -19 -303 0 -253 1 -261 23 -297 32 -51 92
-102 143 -122 40 -15 111 -16 764 -14 688 3 722 4 759 22 52 26 120 99 154
166 34 65 346 566 372 595 10 11 64 94 120 185 57 91 109 172 115 180 7 8 32
51 55 95 24 44 67 117 97 163 60 91 73 125 73 192 -1 63 -17 100 -91 215 -35
55 -72 116 -82 135 -10 19 -42 69 -72 110 -107 151 -407 602 -411 618 -2 10
21 51 52 92 31 41 123 172 204 290 81 118 164 238 184 265 20 28 44 67 53 88
9 20 19 37 24 37 11 0 115 161 128 199 14 44 14 119 -1 162 -6 19 -42 82 -80
142 -37 59 -68 112 -68 118 0 6 -9 23 -21 37 -11 15 -53 79 -93 142 -277 441
-331 526 -337 530 -12 9 -195 304 -217 350 -37 77 -109 159 -160 183 -47 22
-48 22 -792 23 -410 1 -765 -1 -790 -5z m1555 -398 c48 -76 105 -163 126 -193
21 -30 48 -74 59 -97 24 -52 154 -261 286 -463 27 -41 98 -151 158 -245 60
-93 113 -178 119 -187 9 -14 -2 -37 -63 -125 -40 -59 -94 -135 -120 -168 -26
-33 -80 -109 -122 -170 -203 -298 -247 -363 -271 -406 -14 -25 -43 -66 -64
-91 -21 -26 -46 -60 -55 -76 l-17 -29 75 -112 c41 -61 79 -122 84 -134 5 -12
52 -85 104 -162 213 -311 456 -675 456 -682 0 -5 -20 -37 -44 -73 -24 -36
-130 -202 -236 -370 -106 -168 -205 -321 -221 -341 -15 -20 -43 -65 -61 -100
-38 -71 -252 -414 -276 -441 -14 -17 -58 -18 -657 -18 -485 0 -644 3 -653 12
-13 13 -18 321 -6 352 6 14 64 16 558 16 l551 0 64 98 c139 212 421 656 421
664 0 4 27 47 60 95 33 47 60 94 60 103 0 10 -27 59 -60 109 -33 50 -60 96
-60 101 0 11 -193 302 -217 328 -10 10 -52 69 -93 131 -41 61 -97 143 -123
181 l-48 70 -613 0 -612 0 -59 88 c-33 48 -79 114 -105 147 -68 90 -130 179
-130 188 0 11 -260 390 -340 497 -31 41 -91 126 -133 188 l-78 113 67 107 c37
59 113 177 169 262 56 85 118 182 139 215 20 33 68 110 107 170 38 61 72 119
75 130 4 11 32 58 63 104 31 46 86 132 124 190 37 58 76 118 87 134 l21 27
708 0 709 0 87 -137z"/>
<path d="M10324 14392 c-10 -6 -71 -101 -203 -310 -25 -41 -101 -157 -169
-259 -68 -102 -128 -197 -133 -212 -6 -14 -33 -61 -60 -103 -27 -42 -49 -82
-49 -88 0 -6 18 -34 39 -63 22 -29 55 -79 74 -112 19 -33 47 -73 62 -89 32
-35 85 -106 285 -383 l153 -213 506 0 506 0 175 247 c96 136 205 285 243 332
37 47 67 90 67 95 0 5 27 46 60 92 33 45 60 89 60 97 0 7 -19 43 -41 78 -23
35 -57 93 -76 128 -19 35 -51 88 -71 118 -20 30 -123 188 -227 351 l-191 297
-499 2 c-275 2 -505 -1 -511 -5z m921 -359 c90 -138 154 -235 217 -331 32 -48
83 -129 114 -179 l57 -93 -37 -52 c-20 -29 -70 -98 -111 -153 -41 -55 -122
-166 -182 -248 l-107 -147 -370 2 -370 3 -111 152 c-60 84 -120 162 -131 175
-48 51 -194 264 -189 275 4 13 187 298 279 435 28 43 77 118 109 168 l57 90
358 -2 357 -3 60 -92z"/>
<path d="M7067 14903 c-4 -3 -7 -22 -7 -42 0 -30 2 -33 14 -21 21 22 29 70 13
70 -8 0 -17 -3 -20 -7z"/>
<path d="M23470 14887 c0 -11 -5 -15 -11 -11 -7 4 -10 -1 -7 -11 1 -10 8 -20
14 -22 15 -5 24 31 13 48 -7 11 -9 10 -9 -4z"/>
<path d="M13025 14823 c-25 -7 -39 -16 -225 -144 -198 -137 -205 -144 -205
-217 1 -54 5 -64 86 -192 47 -74 123 -196 169 -270 46 -74 111 -178 145 -230
34 -52 70 -109 80 -126 l18 -32 -104 -104 c-57 -57 -122 -130 -144 -163 -22
-33 -69 -100 -104 -149 -35 -49 -85 -133 -110 -185 -45 -93 -46 -98 -46 -191
0 -89 2 -99 34 -158 39 -72 88 -118 169 -159 32 -15 59 -29 61 -30 4 -3 -87
-160 -205 -353 -109 -179 -118 -199 -110 -245 8 -39 44 -81 84 -96 13 -5 142
-9 287 -9 l263 0 44 33 c32 24 71 79 151 207 59 96 113 178 120 182 17 11 147
10 147 -1 0 -21 -53 -101 -77 -117 -38 -24 -78 -71 -116 -132 -34 -56 -94
-147 -189 -285 -31 -46 -72 -113 -91 -149 -35 -67 -213 -335 -248 -373 -10
-11 -72 -92 -139 -180 -66 -88 -149 -197 -183 -243 -105 -136 -112 -156 -111
-297 0 -110 3 -125 29 -178 64 -133 184 -218 317 -225 37 -3 68 -7 68 -10 0
-3 -23 -41 -51 -85 -90 -140 -94 -153 -94 -312 0 -138 0 -141 32 -201 36 -69
94 -126 161 -157 44 -21 62 -22 332 -24 157 -1 292 -2 301 -3 12 0 15 -7 12
-24 -4 -20 2 -29 28 -45 34 -21 39 -21 1695 -21 l1661 0 27 25 26 24 0 380 0
380 -37 30 c-61 51 -90 56 -185 32 -116 -29 -406 -59 -675 -71 -348 -15 -1233
-13 -1238 3 -5 15 -35 447 -45 662 -5 88 -9 357 -9 598 -1 254 -5 437 -10 437
-5 0 -25 -21 -44 -47 -19 -27 -62 -79 -97 -116 l-63 -68 7 -742 c8 -836 10
-850 73 -913 19 -20 33 -37 32 -38 -2 -2 -251 -8 -554 -15 -302 -6 -638 -15
-745 -18 l-194 -6 21 33 c12 19 50 64 85 100 36 36 131 141 212 233 82 92 159
175 173 184 19 13 51 16 141 16 105 0 124 -2 182 -27 129 -54 200 -76 250 -76
64 0 155 32 192 67 l28 27 0 197 0 196 -45 42 c-24 22 -87 62 -140 88 -52 26
-95 51 -95 56 0 5 46 61 103 125 170 194 172 198 172 266 0 68 -16 83 -39 38
-8 -16 -39 -54 -69 -83 -30 -30 -105 -112 -167 -182 -93 -105 -118 -127 -134
-122 -63 18 -196 45 -226 45 -68 1 -69 12 -4 86 32 38 101 113 153 169 107
114 425 478 489 558 l42 55 119 4 c123 4 145 11 189 59 39 41 35 127 -8 182
-11 14 -20 32 -20 41 0 9 23 44 51 78 56 70 69 95 69 138 0 52 -35 65 -174 65
l-121 0 -32 50 c-36 54 -41 86 -18 105 8 7 15 18 15 25 0 7 9 24 21 39 l20 26
192 -1 c120 0 204 -5 224 -12 18 -7 53 -30 78 -51 55 -48 75 -105 75 -211 0
-89 -21 -160 -71 -247 -21 -36 -39 -70 -39 -73 0 -10 -48 -66 -132 -153 -56
-58 -69 -77 -64 -95 3 -12 6 -41 6 -64 0 -24 3 -43 8 -42 4 0 27 24 51 52 24
29 65 75 90 102 117 124 216 285 241 392 13 59 16 171 6 219 l-7 32 368 5
c353 4 389 7 556 40 9 1 13 -69 17 -293 5 -306 8 -328 50 -350 10 -5 41 -10
68 -10 37 0 54 5 68 21 18 20 19 44 22 445 3 409 2 424 -17 443 -41 41 -163
37 -331 -10 -72 -20 -102 -21 -686 -26 l-611 -5 -5 62 c-3 45 -10 66 -22 76
-17 12 -17 16 7 76 128 328 140 535 40 736 -46 94 -118 168 -235 242 -48 30
-87 58 -88 61 0 7 170 296 200 339 40 59 100 179 100 201 -1 57 -41 99 -191
198 -80 53 -164 109 -188 125 -32 22 -53 29 -87 28 -54 0 -86 -20 -118 -70
-169 -265 -412 -665 -442 -729 -26 -54 -70 -93 -106 -93 -10 0 -72 90 -178
263 -89 144 -199 319 -244 389 -44 70 -92 146 -106 169 -14 23 -34 47 -45 54
-25 16 -73 25 -100 18z m83 -227 c23 -40 42 -77 42 -81 0 -4 11 -22 24 -39 13
-17 103 -162 201 -321 97 -160 196 -319 219 -355 24 -36 60 -91 80 -122 20
-32 40 -58 44 -58 9 1 92 137 92 151 0 6 11 25 23 42 13 18 93 147 177 287 84
140 182 300 218 355 36 55 81 126 99 158 19 31 39 57 46 57 7 0 44 -24 83 -53
38 -28 102 -72 142 -97 39 -25 72 -51 72 -59 0 -8 -43 -85 -95 -172 -52 -86
-99 -168 -104 -182 -11 -28 -152 -264 -186 -312 -54 -74 -335 -553 -335 -570
0 -10 25 -55 55 -100 30 -45 55 -86 55 -91 0 -13 -129 -273 -167 -337 -19 -32
-39 -57 -45 -55 -5 2 -16 15 -23 28 -55 103 -98 170 -108 170 -7 -1 -50 -64
-97 -142 -47 -78 -100 -164 -119 -192 -47 -71 -242 -391 -310 -508 l-56 -97
-222 -1 c-122 0 -224 4 -227 8 -5 8 261 445 376 617 37 56 74 118 83 138 17
41 238 405 290 477 64 89 70 65 -76 302 -72 117 -147 236 -165 265 -19 28 -37
60 -41 70 -4 10 -26 49 -50 87 -25 37 -87 139 -140 225 -53 86 -124 201 -159
257 -67 105 -72 119 -51 127 6 2 75 48 151 101 77 53 144 96 150 96 6 0 30
-33 54 -74z m1092 -1260 c0 -15 -58 -146 -65 -146 -2 0 -9 9 -15 20 -11 21 -8
32 37 103 24 38 43 48 43 23z m-438 -827 c14 -28 13 -35 -8 -95 -41 -110 -45
-114 -130 -114 -41 0 -74 3 -74 6 0 8 77 136 116 191 37 54 74 59 96 12z m870
-410 c58 -96 107 -180 107 -186 1 -10 -48 -13 -213 -13 -122 0 -217 4 -221 9
-3 5 33 73 80 150 47 77 85 143 85 147 0 18 34 74 44 71 6 -2 59 -82 118 -178z
m193 121 c6 -10 -34 -68 -48 -69 -11 -1 -47 61 -41 71 7 12 82 10 89 -2z
m-487 -448 c51 -2 92 -8 92 -14 0 -9 -70 -91 -317 -369 -60 -66 -129 -145
-154 -175 -25 -30 -56 -62 -67 -70 -12 -8 -43 -43 -69 -77 -74 -97 -146 -177
-160 -177 -19 0 -17 8 26 74 21 34 46 85 56 114 9 29 24 56 34 61 9 5 39 45
66 88 27 43 121 187 209 321 125 190 163 241 175 236 9 -4 58 -9 109 -12z
m-788 -1582 c0 -5 -73 -91 -162 -191 -90 -99 -182 -203 -205 -230 -45 -53 -62
-105 -47 -148 20 -56 5 -55 763 -36 1153 28 1415 34 1418 31 2 -1 4 -56 5
-122 l3 -119 -195 -7 c-169 -6 -492 -14 -1800 -45 -231 -5 -272 -4 -323 11
-112 33 -167 122 -167 272 0 136 46 231 187 391 84 95 134 117 408 179 122 27
115 26 115 14z m3261 -575 c-1 -77 -4 -159 -7 -182 l-6 -43 -682 -2 c-374 -2
-682 -2 -684 -2 -6 3 -17 294 -11 294 4 0 13 -7 20 -16 12 -15 39 -16 269 -10
469 12 845 46 1025 91 82 21 78 27 76 -130z"/>
<path d="M22980 14795 c0 -3 9 -25 20 -47 11 -23 20 -47 20 -52 0 -6 10 -31
22 -56 12 -25 22 -53 23 -62 2 -10 3 -22 4 -26 0 -5 8 -9 16 -9 19 0 19 31 0
47 -8 7 -13 16 -10 20 3 5 -1 11 -7 13 -8 3 -6 6 5 6 9 1 17 3 17 6 0 15 -33
84 -39 81 -4 -3 -8 7 -9 21 -2 30 -28 63 -49 63 -7 0 -13 -2 -13 -5z"/>
<path d="M7007 14770 c-3 -11 0 -20 5 -20 6 0 4 -8 -5 -18 -10 -10 -17 -25
-16 -33 0 -8 4 -6 9 6 6 14 9 15 10 5 1 -14 30 55 30 73 0 16 -28 6 -33 -13z"/>
<path d="M23500 14776 c0 -8 4 -17 9 -20 10 -7 23 19 14 28 -11 11 -23 6 -23
-8z"/>
<path d="M6487 14726 c-9 -7 -17 -20 -17 -28 0 -8 -7 -28 -15 -45 -8 -16 -18
-45 -21 -63 l-7 -33 21 21 c12 12 22 27 22 34 0 6 10 25 23 42 32 42 38 63 24
74 -8 7 -18 6 -30 -2z"/>
<path d="M23518 14733 c7 -3 16 -2 19 1 4 3 -2 6 -13 5 -11 0 -14 -3 -6 -6z"/>
<path d="M6423 14505 c0 -8 4 -15 9 -15 4 0 8 7 8 15 0 8 -4 15 -8 15 -5 0 -9
-7 -9 -15z"/>
<path d="M23598 14491 c3 -14 13 -34 22 -43 17 -16 18 -15 22 13 3 20 0 29 -9
29 -7 0 -13 6 -13 13 0 8 -6 14 -13 14 -9 0 -12 -9 -9 -26z"/>
<path d="M6914 14471 c3 -5 0 -11 -8 -14 -15 -6 -10 -57 6 -57 5 0 7 4 3 9 -3
5 2 17 11 25 17 17 13 46 -6 46 -6 0 -9 -4 -6 -9z"/>
<path d="M6860 14350 c-8 -5 -15 -17 -15 -27 0 -10 -4 -24 -8 -30 -6 -9 -3
-11 7 -7 13 5 41 63 33 70 -1 2 -9 -1 -17 -6z"/>
<path d="M23666 14304 c-4 -14 -2 -32 4 -39 6 -7 10 -17 9 -21 -3 -20 2 -34
12 -34 5 0 7 5 4 10 -3 6 -2 10 4 10 12 0 7 50 -9 79 -14 27 -16 26 -24 -5z"/>
<path d="M23180 14245 c0 -19 5 -35 10 -35 7 0 7 -7 -1 -21 -6 -13 -7 -19 -1
-15 6 3 12 1 14 -6 2 -6 10 -8 16 -4 19 11 14 64 -7 85 -11 11 -17 22 -13 25
3 3 0 6 -6 6 -7 0 -12 -15 -12 -35z"/>
<path d="M6803 14207 c-3 -6 -1 -7 5 -3 16 9 15 -7 0 -22 -6 -6 -13 -20 -14
-29 -9 -78 -17 -119 -25 -136 -6 -10 -8 -21 -5 -25 3 -3 -1 -13 -9 -23 -10
-10 -14 -28 -11 -45 2 -16 5 -33 5 -38 1 -5 4 -7 7 -3 3 3 5 8 4 12 0 3 8 14
19 23 13 11 22 33 25 62 6 48 9 66 19 90 3 8 9 31 12 50 9 52 10 59 18 66 13
13 7 22 -18 26 -14 3 -28 1 -32 -5z"/>
<path d="M6312 14168 c-9 -35 0 -50 25 -41 15 6 28 47 18 62 -13 21 -35 10
-43 -21z"/>
<path d="M23257 14061 c2 -8 -1 -17 -6 -20 -11 -7 16 -71 29 -71 8 0 10 41 4
78 -3 13 -9 20 -13 17 -5 -3 -11 -2 -14 2 -2 5 -2 2 0 -6z"/>
<path d="M6256 13945 c-3 -8 -3 -22 0 -30 5 -12 10 -11 27 6 19 17 20 21 7 29
-21 13 -27 12 -34 -5z"/>
<path d="M23764 13944 c4 -10 2 -13 -6 -8 -8 5 -9 1 -4 -12 4 -10 9 -32 12
-48 3 -29 33 -71 35 -51 10 89 0 135 -27 135 -10 0 -14 -5 -10 -16z"/>
<path d="M6241 13874 c0 -11 3 -14 6 -6 3 7 2 16 -1 19 -3 4 -6 -2 -5 -13z"/>
<path d="M6680 13755 c-6 -15 -8 -31 -4 -36 3 -5 6 -27 6 -49 0 -26 4 -38 12
-34 6 3 2 -2 -8 -10 -11 -9 -14 -16 -7 -16 7 0 9 -4 6 -10 -3 -5 -2 -10 4 -10
12 0 19 39 20 117 0 67 -13 90 -29 48z"/>
<path d="M6212 13725 c-11 -12 -10 -15 3 -15 8 0 15 7 15 15 0 18 -2 18 -18 0z"/>
<path d="M23346 13684 c-7 -19 14 -84 27 -84 4 0 6 4 2 9 -3 5 -1 12 5 16 5 3
10 20 10 36 0 18 -4 28 -10 24 -5 -3 -10 -1 -10 4 0 17 -17 13 -24 -5z"/>
<path d="M23873 13497 c0 -8 6 -14 14 -14 15 0 12 19 -3 24 -6 2 -11 -3 -11
-10z"/>
<path d="M23430 13362 c0 -7 -7 -12 -15 -12 -10 0 -14 -8 -11 -27 6 -48 19
-88 30 -95 34 -23 47 12 25 69 -6 15 -12 36 -15 47 -4 22 -14 34 -14 18z"/>
<path d="M23897 13350 c-9 -34 3 -77 26 -97 21 -18 21 -17 7 1 -14 18 -14 19
6 8 16 -9 21 -8 21 4 0 7 -4 14 -8 14 -4 0 -6 8 -4 18 2 11 -7 32 -19 47 l-23
28 -6 -23z"/>
<path d="M17969 13286 c-89 -32 -136 -75 -206 -191 -74 -121 -381 -605 -413
-650 -51 -73 -166 -258 -220 -355 -29 -52 -108 -178 -175 -280 -155 -235 -170
-262 -186 -333 -22 -100 15 -198 141 -372 49 -68 215 -329 227 -356 6 -14 47
-79 90 -144 146 -222 212 -323 458 -703 27 -42 56 -83 65 -92 8 -8 24 -27 36
-42 11 -15 41 -37 65 -50 44 -23 48 -23 389 -23 l345 0 50 28 c81 46 132 102
155 171 25 75 25 118 1 189 -17 47 -170 295 -281 452 -15 22 -42 66 -59 99
-38 69 -120 196 -402 621 -47 72 -91 139 -97 151 -9 17 1 39 75 155 47 74 106
165 132 203 83 124 138 209 226 349 l87 137 427 0 426 0 21 -33 c12 -17 70
-108 129 -202 59 -93 116 -179 125 -190 23 -27 190 -291 190 -301 0 -4 14 -29
31 -56 l31 -48 -31 -48 c-17 -27 -31 -53 -31 -59 0 -5 -33 -59 -72 -119 -40
-60 -113 -173 -163 -251 -116 -183 -274 -430 -348 -541 -31 -48 -68 -107 -81
-132 -13 -25 -42 -80 -65 -123 -38 -72 -41 -84 -41 -155 0 -96 21 -144 92
-216 83 -85 100 -88 490 -84 315 3 324 4 366 26 62 33 131 106 185 197 27 44
77 125 112 180 118 186 185 296 185 305 0 5 19 37 43 72 24 35 126 196 227
358 102 162 198 313 215 335 48 65 95 166 101 221 10 81 -11 141 -93 276 -41
68 -83 132 -92 143 -10 11 -78 116 -152 232 -202 320 -249 397 -249 406 0 5
-12 25 -27 44 -16 20 -53 76 -83 125 -279 448 -338 537 -391 590 -25 25 -66
57 -90 70 l-44 23 -905 2 c-723 2 -912 0 -941 -11z m1793 -331 c15 -22 27 -45
28 -51 0 -11 153 -255 325 -517 100 -153 318 -500 345 -549 8 -15 67 -110 131
-210 64 -101 119 -189 123 -196 8 -13 -117 -225 -186 -317 -21 -27 -51 -77
-68 -110 -16 -33 -62 -113 -102 -177 -40 -64 -97 -157 -127 -205 -30 -48 -66
-104 -80 -123 -14 -19 -51 -74 -81 -122 -195 -312 -234 -374 -244 -380 -17
-11 -484 -10 -491 2 -5 9 258 442 296 485 24 28 159 245 159 256 0 13 94 165
218 351 26 39 85 129 130 200 l84 128 -96 153 c-52 83 -111 175 -130 202 -67
97 -206 316 -206 324 0 12 -179 293 -244 384 l-56 77 -590 0 -589 0 -43 -57
c-23 -32 -132 -197 -240 -367 -109 -171 -205 -317 -213 -325 -7 -9 -18 -29
-24 -44 -6 -15 -39 -72 -74 -125 -35 -53 -80 -125 -101 -159 l-38 -62 42 -68
c77 -123 114 -178 138 -207 13 -17 28 -41 33 -55 11 -28 362 -574 389 -606 25
-28 237 -359 272 -423 15 -29 26 -57 23 -63 -4 -5 -105 -9 -241 -9 -210 0
-236 2 -250 18 -22 23 -174 260 -187 292 -6 14 -36 63 -67 109 -191 291 -308
470 -372 571 -40 63 -99 151 -130 195 -32 44 -68 100 -80 125 -12 25 -33 62
-46 82 -24 37 -24 38 -6 65 10 16 33 57 51 92 35 66 142 238 177 282 12 14 33
46 48 70 14 24 68 109 118 189 51 80 104 165 119 188 14 24 63 101 109 170 45
69 82 129 82 134 0 4 24 45 53 91 29 45 84 132 122 192 37 61 75 118 83 128
14 16 64 17 846 15 l830 -3 28 -40z"/>
<path d="M6111 13271 c-6 -11 -7 -22 -2 -25 5 -3 11 4 14 16 8 30 1 35 -12 9z"/>
<path d="M6070 13118 c0 -15 -4 -28 -9 -28 -5 0 -11 -9 -14 -20 -3 -11 -2 -18
3 -15 10 6 22 -24 14 -38 -3 -7 2 -3 10 7 9 11 17 27 17 35 5 67 3 88 -8 88
-8 0 -13 -13 -13 -29z"/>
<path d="M23939 13094 c-2 -35 0 -54 7 -74 4 -13 6 -13 14 0 14 22 11 62 -5
84 -14 19 -15 18 -16 -10z"/>
<path d="M6525 13027 c-15 -18 -19 -50 -4 -41 8 4 10 3 5 -4 -4 -7 -5 -16 -1
-22 8 -14 37 0 31 16 -3 7 0 14 7 17 7 2 4 11 -8 24 -15 15 -23 18 -30 10z"/>
<path d="M6057 12970 c-16 -45 -21 -82 -22 -147 0 -56 3 -69 13 -61 6 6 12 17
12 26 0 9 5 31 12 49 9 25 9 41 1 63 -6 17 -7 28 -2 24 11 -6 11 14 -1 41 -6
16 -9 17 -13 5z"/>
<path d="M6511 12854 c0 -11 3 -14 6 -6 3 7 2 16 -1 19 -3 4 -6 -2 -5 -13z"/>
<path d="M23520 12791 c0 -5 5 -13 10 -16 6 -3 10 -2 10 4 0 5 -4 13 -10 16
-5 3 -10 2 -10 -4z"/>
<path d="M23530 12741 c0 -5 -3 -17 -6 -25 -5 -12 -2 -15 10 -10 18 7 21 29 6
39 -5 3 -10 2 -10 -4z"/>
<path d="M6040 12725 c0 -8 2 -15 4 -15 2 0 6 7 10 15 3 8 1 15 -4 15 -6 0
-10 -7 -10 -15z"/>
<path d="M24007 12713 c-4 -3 -7 -13 -7 -22 1 -13 3 -13 11 2 11 19 8 33 -4
20z"/>
<path d="M24004 12646 c-10 -21 -8 -28 9 -43 11 -10 17 -13 14 -6 -4 6 -3 13
2 15 5 2 4 15 -2 31 l-12 27 -11 -24z"/>
<path d="M23523 12636 c4 -10 7 -27 7 -38 0 -11 5 -18 13 -15 6 2 10 11 8 18
-2 8 -4 21 -5 28 -2 8 -9 17 -16 19 -9 3 -11 -1 -7 -12z"/>
<path d="M6495 12621 c-4 -13 -4 -25 -1 -28 3 -4 6 2 6 13 0 16 2 17 10 4 5
-8 10 -10 10 -5 0 6 -4 16 -9 24 -7 11 -10 9 -16 -8z"/>
<path d="M23548 12542 c-7 -24 -2 -112 6 -140 19 -58 27 12 17 141 -1 22 -17
22 -23 -1z"/>
<path d="M6486 12495 c-3 -8 -1 -15 4 -15 6 0 10 7 10 15 0 8 -2 15 -4 15 -2
0 -6 -7 -10 -15z"/>
<path d="M6094 12108 c-7 -23 -9 -20 33 -41 24 -11 35 -12 40 -4 15 24 10 33
-28 49 -37 16 -38 15 -45 -4z"/>
<path d="M23330 9626 c-7 -17 -14 -43 -16 -57 -1 -14 -11 -41 -22 -59 -16 -25
-18 -38 -11 -52 12 -23 31 -24 22 -1 -4 11 -3 14 5 9 18 -11 39 41 24 56 -14
14 -16 32 -3 23 12 -7 18 3 29 51 12 54 -8 76 -28 30z"/>
<path d="M23790 9540 c0 -16 -4 -30 -10 -30 -5 0 -7 -6 -4 -14 3 -8 12 -12 20
-9 9 3 13 11 10 19 -3 7 -1 14 3 16 5 2 11 14 15 28 3 14 3 19 0 13 -3 -7 -10
-13 -15 -13 -6 0 -7 5 -4 10 3 6 1 10 -4 10 -6 0 -11 -13 -11 -30z"/>
<path d="M6760 9360 c0 -5 5 -10 11 -10 5 0 7 5 4 10 -3 6 -8 10 -11 10 -2 0
-4 -4 -4 -10z"/>
<path d="M23732 9360 c0 -3 -1 -7 -2 -10 -8 -21 -9 -61 -1 -56 5 4 13 2 16 -4
4 -6 1 -9 -6 -8 -6 2 -13 -2 -16 -9 -2 -6 3 -10 13 -9 9 1 22 20 30 42 19 55
18 64 -10 62 -14 -1 -24 -5 -24 -8z"/>
<path d="M23244 9308 c0 -7 -3 -14 -9 -15 -11 -2 -24 -35 -18 -46 3 -4 12 -2
21 5 13 11 14 11 7 -2 -8 -13 -7 -13 8 -1 21 16 23 71 3 71 -8 0 -13 -6 -12
-12z"/>
<path d="M23690 9062 c0 -7 -7 -12 -17 -12 -9 0 -13 -3 -10 -7 4 -3 0 -17 -8
-30 -15 -23 -13 -43 4 -43 10 0 42 92 35 99 -2 2 -4 -1 -4 -7z"/>
<path d="M6354 9046 c-12 -12 1 -54 21 -68 13 -9 25 24 14 38 -5 6 -7 13 -5
15 2 2 -1 9 -8 15 -8 7 -15 7 -22 0z"/>
<path d="M6850 9040 c0 -5 7 -10 16 -10 8 0 12 5 9 10 -3 6 -10 10 -16 10 -5
0 -9 -4 -9 -10z"/>
<path d="M23147 8977 c-3 -9 1 -18 9 -21 16 -6 18 2 5 22 -7 11 -9 11 -14 -1z"/>
<path d="M23135 8930 c-3 -6 1 -7 9 -4 18 7 21 14 7 14 -6 0 -13 -4 -16 -10z"/>
<path d="M6885 8920 c3 -5 8 -10 11 -10 2 0 4 5 4 10 0 6 -5 10 -11 10 -5 0
-7 -4 -4 -10z"/>
<path d="M23140 8910 c-9 -6 -10 -10 -3 -10 6 0 15 5 18 10 8 12 4 12 -15 0z"/>
<path d="M23081 8819 c-19 -27 -31 -52 -28 -55 3 -3 -1 -21 -9 -39 -7 -19 -11
-41 -7 -51 5 -14 8 -13 24 7 10 13 19 29 19 35 0 6 8 22 18 35 12 15 19 42 19
72 1 26 1 47 0 47 -1 0 -17 -23 -36 -51z"/>
<path d="M6910 8835 c0 -14 7 -28 15 -31 8 -4 15 -12 15 -19 0 -7 6 -16 13
-18 9 -4 9 -6 0 -6 -7 -1 -10 -7 -7 -15 7 -19 34 -9 34 13 -1 23 -43 96 -57
99 -8 1 -13 -8 -13 -23z"/>
<path d="M6976 8721 c-3 -5 1 -14 8 -20 12 -10 13 -8 9 8 -6 23 -9 25 -17 12z"/>
<path d="M11652 8607 l-22 -23 0 -765 0 -766 23 -21 c20 -19 35 -22 103 -22
131 0 123 -23 126 386 l3 339 340 0 340 0 3 -339 c3 -409 -5 -386 127 -386 72
0 84 3 103 23 l22 23 0 765 0 766 -23 21 c-20 19 -35 22 -103 22 -71 0 -83 -3
-102 -23 -21 -22 -22 -31 -24 -327 l-3 -305 -340 0 -340 0 -3 305 c-3 368 4
350 -127 350 -72 0 -84 -3 -103 -23z m148 -387 l0 -330 380 0 380 0 0 -35 0
-35 -380 0 -380 0 0 -365 0 -365 -45 0 -45 0 0 730 0 730 45 0 45 0 0 -330z
m940 -400 l0 -730 -45 0 -45 0 0 730 0 730 45 0 45 0 0 -730z"/>
<path d="M12922 8607 l-22 -23 0 -765 0 -766 23 -21 c20 -19 35 -22 103 -22
71 0 83 3 102 23 22 23 22 29 22 310 0 221 3 289 13 292 6 3 157 6 335 7 l322
3 0 -296 0 -296 23 -21 c20 -19 35 -22 103 -22 71 0 83 3 102 23 l22 23 0 546
c0 506 -1 550 -19 620 -11 42 -32 100 -47 129 -39 77 -144 179 -225 217 -119
57 -161 62 -515 62 l-321 0 -21 -23z m749 -83 c167 -60 269 -175 305 -342 11
-53 14 -176 14 -579 l0 -513 -45 0 -44 0 -3 543 c-3 539 -3 542 -26 599 -46
114 -160 204 -291 228 -29 5 -157 10 -282 10 l-229 0 0 -340 0 -340 350 0 350
0 0 -35 0 -35 -350 0 -350 0 0 -315 0 -315 -45 0 -45 0 0 731 0 730 318 -3
c286 -4 322 -6 373 -24z m-128 -144 c78 -11 137 -38 185 -84 68 -63 92 -150
92 -331 l0 -100 -322 3 c-178 1 -329 4 -335 7 -10 3 -13 63 -13 253 0 137 3
252 7 255 10 11 309 8 386 -3z"/>
<path d="M15472 8607 l-22 -23 0 -765 0 -766 23 -21 c20 -19 35 -22 103 -22
71 0 83 3 102 23 22 23 22 29 22 310 0 221 3 289 13 292 6 3 157 6 335 7 l322
3 0 -296 0 -296 23 -21 c20 -19 35 -22 103 -22 71 0 83 3 102 23 l22 23 0 546
c0 506 -1 550 -19 620 -11 42 -32 100 -47 129 -39 77 -144 179 -225 217 -119
57 -161 62 -515 62 l-321 0 -21 -23z m701 -72 c135 -28 256 -118 310 -229 55
-111 57 -136 57 -698 l0 -518 -45 0 -44 0 -3 543 c-3 539 -3 542 -26 599 -46
114 -160 204 -291 228 -29 5 -157 10 -282 10 l-229 0 0 -340 0 -340 350 0 350
0 0 -35 0 -35 -350 0 -350 0 0 -315 0 -315 -45 0 -45 0 0 730 0 730 288 0
c211 0 305 -4 355 -15z m-80 -155 c78 -11 137 -38 185 -84 68 -63 92 -150 92
-331 l0 -100 -322 3 c-178 1 -329 4 -335 7 -10 3 -13 63 -13 253 0 137 3 252
7 255 10 11 309 8 386 -3z"/>
<path d="M16702 8607 l-22 -23 0 -765 0 -766 23 -21 c20 -19 35 -22 103 -22
71 0 83 3 102 23 21 22 22 32 24 277 l3 255 260 6 c278 6 299 9 400 62 123 66
216 196 249 347 13 59 14 20 15 -431 l1 -496 23 -21 c20 -19 35 -22 103 -22
71 0 83 3 102 23 21 22 22 32 24 277 l3 255 260 6 c278 6 299 9 400 62 115 62
205 178 240 312 20 77 19 230 -1 309 -46 179 -181 314 -360 360 -51 13 -125
16 -406 16 l-345 0 -21 -23 c-21 -22 -22 -32 -23 -238 l0 -214 -20 79 c-48
196 -178 332 -365 380 -51 13 -125 16 -406 16 l-345 0 -21 -23z m743 -72 c206
-54 325 -214 325 -436 0 -226 -130 -394 -338 -438 -29 -6 -148 -11 -267 -11
l-215 0 0 39 0 39 233 4 c267 5 295 11 377 85 63 56 96 120 112 213 23 137
-18 269 -112 353 -85 77 -104 80 -427 85 l-283 3 0 -690 0 -691 -45 0 -45 0 0
730 0 730 313 0 c250 0 325 -3 372 -15z m1180 0 c206 -54 325 -214 325 -436 0
-226 -130 -394 -338 -438 -29 -6 -148 -11 -267 -11 l-215 0 0 39 0 39 233 4
c267 5 295 11 377 85 63 56 96 120 112 213 23 137 -18 269 -112 353 -85 77
-104 80 -427 85 l-283 3 0 -690 0 -691 -45 0 -45 0 0 730 0 730 313 0 c250 0
325 -3 372 -15z m-1185 -171 c62 -29 97 -64 127 -130 59 -129 19 -305 -84
-373 -25 -17 -62 -34 -82 -38 -20 -5 -133 -8 -251 -8 l-215 0 -3 275 c-1 151
0 281 3 288 4 12 46 13 233 10 203 -3 232 -6 272 -24z m1180 0 c62 -29 97 -64
127 -130 59 -129 19 -305 -84 -373 -25 -17 -62 -34 -82 -38 -20 -5 -133 -8
-251 -8 l-215 0 -3 275 c-1 151 0 281 3 288 4 12 46 13 233 10 203 -3 232 -6
272 -24z"/>
<path d="M11155 8605 c-294 -65 -507 -259 -597 -545 -21 -67 -23 -93 -22 -250
0 -163 2 -181 27 -255 84 -250 254 -421 504 -505 94 -32 106 -34 281 -38 180
-4 184 -4 208 19 21 20 24 31 24 99 0 112 -5 116 -190 124 -170 7 -271 33
-366 94 -107 69 -194 194 -224 322 -20 85 -16 252 9 330 57 178 179 301 355
355 64 20 111 27 228 32 139 6 149 7 170 30 19 20 23 36 23 88 0 53 -4 67 -24
89 -24 26 -25 26 -185 25 -94 0 -186 -6 -221 -14z m345 -100 l0 -35 -104 0
c-307 0 -523 -124 -638 -366 -60 -127 -74 -345 -32 -484 87 -288 328 -450 670
-450 l104 0 0 -41 0 -41 -152 5 c-169 5 -233 18 -343 71 -141 67 -253 176
-319 310 -46 95 -65 171 -72 291 -21 335 142 603 437 722 91 37 179 51 322 52
l127 1 0 -35z"/>
<path d="M14072 8613 c-55 -22 -55 -183 1 -212 13 -7 90 -12 197 -14 l175 -2
5 -668 5 -669 24 -19 c18 -15 39 -19 96 -19 57 0 78 4 96 19 l24 19 5 669 5
668 175 2 c107 2 184 7 197 14 58 30 56 190 -2 213 -20 7 -984 7 -1003 -1z
m958 -108 l0 -35 -205 0 -205 0 0 -690 0 -690 -45 0 -45 0 0 690 0 690 -205 0
-205 0 0 35 0 35 455 0 455 0 0 -35z"/>
<path d="M23509 8598 c-2 -22 2 -43 11 -52 5 -5 8 0 7 13 -1 11 -5 21 -10 21
-5 0 -4 7 3 15 9 10 9 15 1 15 -6 0 -12 -6 -12 -12z"/>
<path d="M7023 8528 c1 -7 6 -17 10 -23 29 -38 38 -48 32 -37 -3 6 -2 12 2 12
5 0 9 9 10 20 1 11 -3 20 -8 20 -6 0 -7 5 -4 10 4 6 -5 10 -19 10 -15 0 -25
-5 -23 -12z"/>
<path d="M23501 8504 c0 -11 3 -14 6 -6 3 7 2 16 -1 19 -3 4 -6 -2 -5 -13z"/>
<path d="M22960 8476 c0 -14 -4 -26 -8 -26 -5 0 -8 -10 -7 -22 4 -35 54 -15
53 20 0 9 1 24 3 32 3 9 -4 16 -18 18 -19 3 -23 -1 -23 -22z"/>
<path d="M23473 8485 c0 -8 4 -15 9 -15 4 0 8 4 8 9 0 6 -4 12 -8 15 -5 3 -9
-1 -9 -9z"/>
<path d="M6555 8481 c-3 -6 -11 -9 -16 -5 -16 9 42 -95 68 -123 9 -10 13 -10
19 -1 4 6 2 14 -4 16 -6 2 -8 10 -5 19 4 11 3 14 -6 9 -8 -5 -12 -3 -10 5 3
25 -1 40 -9 35 -4 -2 -9 5 -9 16 -2 27 -18 44 -28 29z"/>
<path d="M23460 8437 c0 -11 1 -18 3 -16 1 2 8 11 15 20 9 13 9 16 -3 16 -8 0
-15 -9 -15 -20z"/>
<path d="M22940 8381 c0 -7 -5 -9 -12 -5 -7 5 -8 3 -3 -5 5 -9 10 -10 18 -2 6
6 8 14 4 18 -4 3 -7 1 -7 -6z"/>
<path d="M22883 8280 c-3 -11 -9 -20 -14 -20 -5 0 -9 -10 -9 -22 0 -20 1 -20
19 -4 21 19 34 66 19 66 -6 0 -12 -9 -15 -20z"/>
<path d="M7130 8275 c0 -11 49 -63 51 -54 6 29 4 51 -5 56 -18 12 -46 10 -46
-2z"/>
<path d="M6660 8253 c5 -2 8 -9 4 -14 -3 -5 0 -9 6 -9 15 0 7 23 -8 26 -7 1
-8 0 -2 -3z"/>
<path d="M23379 8228 c-9 -17 -3 -48 7 -48 8 0 14 11 14 25 0 14 -4 25 -10 25
-5 0 -11 -1 -11 -2z"/>
<path d="M22820 8168 c-21 -23 -24 -31 -13 -41 9 -9 53 33 53 50 0 19 -17 16
-40 -9z"/>
<path d="M7190 8160 c0 -5 5 -10 11 -10 5 0 7 5 4 10 -3 6 -8 10 -11 10 -2 0
-4 -4 -4 -10z"/>
<path d="M7208 8133 c7 -3 16 -2 19 1 4 3 -2 6 -13 5 -11 0 -14 -3 -6 -6z"/>
<path d="M22751 7990 c-1 -27 -4 -31 -11 -20 -7 11 -9 6 -7 -18 5 -44 12 -48
33 -17 15 23 15 28 3 36 -12 7 -12 9 1 9 10 0 11 3 4 8 -6 4 -14 14 -17 22 -3
8 -6 -1 -6 -20z"/>
<path d="M23273 7986 c-15 -14 -19 -26 -14 -35 7 -11 13 -8 26 12 23 35 15 49
-12 23z"/>
<path d="M23233 7888 c-2 -22 13 -24 21 -2 8 21 8 21 -7 21 -7 0 -14 -9 -14
-19z"/>
<path d="M7324 7858 c3 -18 13 -39 20 -46 11 -12 13 -10 9 12 -3 15 -1 26 6
26 20 0 11 17 -15 29 -26 12 -27 11 -20 -21z"/>
<path d="M23205 7850 c-3 -5 -3 -14 0 -20 3 -5 2 -10 -4 -10 -19 0 -33 -39
-21 -58 10 -16 10 -15 9 3 -3 38 1 51 9 38 5 -9 13 -1 24 22 12 28 13 35 2 35
-7 0 -16 -4 -19 -10z"/>
<path d="M6830 7781 c0 -10 6 -21 14 -24 22 -9 27 5 8 20 -9 8 -11 11 -3 7 9
-5 12 -3 7 4 -11 18 -26 14 -26 -7z"/>
<path d="M22584 7676 c-3 -15 -15 -33 -25 -40 -11 -7 -21 -22 -23 -32 -3 -11
-8 -27 -12 -38 -5 -14 -3 -17 12 -14 17 3 81 108 65 108 -3 0 0 4 7 9 10 6 10
10 -2 20 -13 11 -16 9 -22 -13z"/>
<path d="M22522 7504 c-7 -8 -9 -14 -5 -14 4 0 2 -4 -6 -9 -7 -5 -9 -11 -4
-14 5 -3 16 2 25 12 19 22 9 46 -10 25z"/>
<path d="M22442 7425 c-12 -14 -22 -29 -22 -34 0 -5 -4 -11 -8 -13 -11 -4 -52
-73 -52 -88 0 -13 -30 -81 -39 -90 -4 -3 -7 -13 -9 -22 -5 -30 18 -20 29 12 6
16 14 28 19 25 8 -5 80 98 80 115 0 5 5 10 11 10 5 0 7 5 4 10 -4 6 -2 16 3
23 14 18 23 65 14 71 -5 3 -19 -6 -30 -19z"/>
<path d="M7560 7384 c0 -8 5 -12 10 -9 6 3 10 1 10 -6 0 -16 13 -3 16 16 1 9
-6 15 -17 15 -11 0 -19 -7 -19 -16z"/>
<path d="M7705 7176 c-7 -25 -4 -33 19 -53 15 -13 25 -27 22 -32 -4 -5 2 -8
11 -7 9 2 18 7 20 13 6 17 -27 83 -41 83 -8 0 -16 6 -19 13 -2 6 -8 -1 -12
-17z"/>
<path d="M22296 7134 c-6 -16 2 -18 22 -5 11 7 11 9 -1 14 -9 3 -18 -1 -21 -9z"/>
<path d="M7775 7080 c-8 -14 11 -37 36 -45 11 -4 17 -11 14 -16 -4 -5 1 -9 9
-9 9 0 16 4 16 10 0 15 -42 50 -53 43 -6 -4 -8 0 -4 10 7 18 -8 23 -18 7z"/>
<path d="M22800 7072 c0 -6 -7 -9 -15 -6 -11 5 -15 -1 -15 -25 0 -42 26 -41
33 2 2 17 3 34 1 36 -2 2 -4 -1 -4 -7z"/>
<path d="M7232 7046 c6 -14 15 -26 20 -26 10 0 -7 36 -22 45 -6 4 -5 -5 2 -19z"/>
<path d="M22760 6989 c0 -5 5 -7 10 -4 6 3 10 8 10 11 0 2 -4 4 -10 4 -5 0
-10 -5 -10 -11z"/>
<path d="M7849 6975 c-7 -7 1 -55 10 -56 3 0 14 -2 24 -4 9 -2 17 0 17 3 0 13
-45 63 -51 57z"/>
<path d="M7332 6906 c4 -5 3 -15 -3 -22 -9 -10 -7 -15 5 -20 9 -3 16 -10 16
-14 0 -11 61 -110 68 -110 2 0 1 7 -2 16 -6 15 -4 15 11 3 20 -16 -20 54 -49
85 -10 11 -18 25 -18 32 0 6 -8 18 -17 25 -10 7 -15 9 -11 5z"/>
<path d="M22693 6903 c-7 -3 -13 -14 -13 -26 0 -20 1 -20 16 -5 18 18 16 37
-3 31z"/>
<path d="M22083 6863 c-7 -3 -13 -14 -13 -24 0 -11 5 -17 10 -14 6 3 10 -2 11
-12 0 -14 2 -15 6 -3 3 8 9 17 14 20 11 8 -14 37 -28 33z"/>
<path d="M7947 6826 c-4 -9 -2 -16 3 -16 6 0 9 -3 8 -7 -3 -16 36 -83 49 -83
7 0 13 -4 13 -10 0 -5 4 -10 9 -10 14 0 -8 58 -30 84 -10 12 -24 30 -32 40
-12 17 -14 17 -20 2z"/>
<path d="M21966 6661 c-9 -10 -13 -21 -9 -24 3 -4 1 -7 -5 -7 -6 0 -23 -11
-38 -25 l-27 -25 24 0 c14 0 36 13 52 30 16 17 32 30 37 30 4 0 10 8 12 18 7
24 -25 26 -46 3z"/>
<path d="M22488 6600 c-3 -17 1 -31 8 -34 10 -4 19 9 42 57 2 4 -8 7 -21 7
-20 0 -26 -6 -29 -30z"/>
<path d="M22380 6420 c0 -5 5 -10 11 -10 5 0 7 5 4 10 -3 6 -8 10 -11 10 -2 0
-4 -4 -4 -10z"/>
<path d="M21765 6410 c-3 -5 3 -10 14 -10 11 0 23 5 26 10 3 6 -3 10 -14 10
-11 0 -23 -4 -26 -10z"/>
<path d="M22321 6352 c0 -7 -9 -12 -18 -10 -12 2 -21 -7 -28 -30 -6 -18 -20
-43 -31 -55 -10 -12 -25 -35 -32 -51 -7 -16 -15 -26 -19 -23 -3 4 -15 -7 -25
-24 -12 -20 -16 -35 -10 -41 13 -13 65 39 83 82 14 35 15 41 18 61 0 6 8 8 16
5 9 -3 18 1 21 8 3 8 15 17 27 20 12 3 18 8 14 12 -4 4 -1 14 6 22 8 11 8 14
0 9 -7 -4 -13 0 -16 10 -3 10 -5 12 -6 5z"/>
<path d="M7720 6310 c0 -5 5 -10 11 -10 5 0 7 5 4 10 -3 6 -8 10 -11 10 -2 0
-4 -4 -4 -10z"/>
<path d="M21641 6268 c-9 -15 -8 -20 3 -24 19 -7 32 1 39 25 6 26 -26 24 -42
-1z"/>
<path d="M8355 6270 c-3 -5 3 -18 15 -30 11 -11 20 -24 20 -28 0 -15 38 -44
49 -37 18 11 12 25 -27 66 -41 41 -47 45 -57 29z"/>
<path d="M7794 6243 c10 -11 37 -12 30 -2 -3 5 -12 9 -21 9 -9 0 -13 -3 -9 -7z"/>
<path d="M21583 6169 c-13 -5 -23 -16 -23 -25 0 -10 -5 -14 -14 -11 -10 4 -18
-5 -25 -24 -6 -19 -21 -33 -38 -40 -37 -12 -61 -48 -41 -60 35 -22 69 -7 75
35 2 10 11 25 21 33 9 8 11 11 3 7 -9 -4 -12 -3 -8 3 4 6 22 18 41 27 18 9 36
25 39 36 6 25 -2 30 -30 19z"/>
<path d="M8460 6130 c-11 -20 -9 -26 14 -47 14 -13 26 -20 26 -16 0 4 5 1 10
-7 8 -13 12 -12 27 4 17 18 17 19 0 12 -15 -5 -17 -2 -12 13 4 14 -1 23 -17
32 -13 7 -26 16 -29 22 -4 5 -12 0 -19 -13z"/>
<path d="M22135 6121 c3 -5 -17 -31 -44 -58 -47 -45 -68 -92 -46 -100 10 -3
67 46 95 82 13 17 13 18 0 10 -10 -6 -9 -1 3 12 15 17 16 25 7 42 -6 12 -13
21 -16 21 -3 0 -3 -4 1 -9z"/>
<path d="M8545 6050 c-3 -5 -1 -10 4 -10 6 0 11 5 11 10 0 6 -2 10 -4 10 -3 0
-8 -4 -11 -10z"/>
<path d="M21399 5983 c-8 -9 -9 -14 -2 -10 6 4 13 2 15 -4 3 -8 10 -5 21 6 10
9 15 20 11 24 -4 3 -9 0 -11 -6 -3 -7 -9 -13 -14 -13 -6 0 -7 5 -4 10 10 16
-1 11 -16 -7z"/>
<path d="M8647 5925 c-3 -7 -3 -15 0 -18 7 -7 33 3 33 13 0 14 -28 19 -33 5z"/>
<path d="M8061 5921 c-12 -8 -13 -14 -3 -35 6 -14 17 -26 24 -25 10 0 10 2 1
5 -8 4 -10 16 -6 35 6 32 5 33 -16 20z"/>
<path d="M21257 5813 c-13 -13 -7 -21 13 -16 11 3 17 9 14 14 -6 11 -18 12
-27 2z"/>
<path d="M21126 5679 c-15 -12 -31 -32 -36 -45 -5 -12 -22 -28 -37 -36 -20 -9
-29 -21 -30 -43 -2 -25 -1 -27 7 -10 5 11 9 14 9 7 1 -10 5 -10 21 0 11 7 19
20 18 28 -4 25 12 40 42 40 20 0 31 6 35 20 3 11 10 20 15 20 4 0 10 6 13 14
4 10 0 12 -15 8 -14 -3 -19 -1 -14 6 11 18 2 15 -28 -9z"/>
<path d="M8944 5645 c5 -11 10 -28 13 -37 6 -20 41 -34 53 -21 5 4 -10 24 -32
43 -31 25 -40 29 -34 15z"/>
<path d="M9020 5570 c0 -5 5 -10 11 -10 5 0 7 5 4 10 -3 6 -8 10 -11 10 -2 0
-4 -4 -4 -10z"/>
<path d="M8345 5551 c-6 -11 42 -51 61 -51 14 0 41 -40 27 -40 -4 0 3 -6 17
-13 14 -8 26 -13 28 -11 8 6 -30 64 -38 59 -6 -4 -10 3 -10 15 0 22 -43 45
-62 34 -7 -4 -8 -2 -4 4 4 7 3 12 -3 12 -5 0 -12 -4 -16 -9z"/>
<path d="M9024 5539 c-4 -8 -3 -9 4 -5 7 4 12 2 12 -3 0 -6 7 -11 16 -11 20 0
13 24 -8 28 -9 2 -20 -2 -24 -9z"/>
<path d="M21652 5535 c-11 -13 -10 -15 6 -15 10 0 19 7 19 15 0 19 -8 19 -25
0z"/>
<path d="M20985 5510 c-4 -6 -13 -9 -20 -6 -17 6 -40 -20 -25 -29 5 -3 10 -3
10 2 0 4 5 1 10 -7 7 -11 10 -11 10 -2 0 7 4 11 9 7 5 -3 13 4 16 16 8 23 1
36 -10 19z"/>
<path d="M9107 5483 c-15 -15 -5 -37 38 -79 48 -46 98 -77 109 -67 3 4 6 0 6
-7 0 -17 13 -4 16 15 1 8 -10 22 -26 31 -15 9 -47 39 -70 65 -41 47 -59 57
-73 42z"/>
<path d="M20880 5450 c-19 -17 -30 -29 -23 -26 6 4 13 0 16 -6 7 -19 50 25 45
46 -2 14 -9 11 -38 -14z"/>
<path d="M20826 5391 c-9 -10 -16 -23 -16 -29 0 -7 -3 -11 -7 -10 -5 1 -19 -3
-33 -9 -14 -6 -33 -14 -43 -17 -9 -3 -25 -22 -35 -43 -9 -21 -20 -39 -24 -41
-5 -2 -8 -12 -8 -23 0 -18 1 -18 20 1 11 11 27 20 36 20 19 0 104 87 104 107
0 9 5 11 13 7 9 -6 9 -4 -1 8 -12 14 -10 17 15 20 31 3 38 20 11 24 -9 1 -24
-6 -32 -15z"/>
<path d="M9298 5292 c-14 -3 -10 -11 22 -43 21 -21 35 -39 32 -39 -4 0 8 -9
27 -21 18 -11 43 -19 55 -17 19 3 18 6 -16 41 -21 21 -38 41 -38 45 0 12 -63
38 -82 34z"/>
<path d="M20542 5158 c-14 -14 -16 -35 -2 -43 12 -8 53 33 45 45 -8 14 -29 12
-43 -2z"/>
<path d="M9536 5064 c-8 -22 -9 -21 20 -28 15 -4 33 -14 42 -22 12 -13 16 -13
23 -2 8 12 13 4 10 -14 0 -4 6 -5 14 -2 10 4 15 0 15 -13 0 -20 40 -62 78 -82
28 -15 32 -14 32 8 0 13 -20 33 -55 56 -30 20 -66 50 -80 67 -14 16 -37 31
-52 34 -14 3 -30 7 -34 9 -4 3 -10 -2 -13 -11z"/>
<path d="M21180 5074 c0 -6 -11 -17 -25 -24 -14 -7 -25 -20 -24 -29 0 -11 2
-12 6 -3 2 6 9 10 13 7 15 -9 49 31 39 46 -5 8 -9 9 -9 3z"/>
<path d="M20443 5058 c-4 -8 -26 -24 -48 -37 -22 -13 -44 -29 -48 -37 -4 -8
-18 -14 -29 -14 -12 0 -18 -3 -15 -7 4 -3 -2 -12 -13 -20 -20 -14 -29 -50 -10
-38 6 3 10 2 10 -3 0 -6 10 -5 25 1 16 8 25 20 25 35 0 13 4 20 10 17 6 -3 10
-1 10 4 0 6 6 11 13 11 7 0 24 14 39 30 14 17 36 30 48 30 15 0 20 5 18 17 -4
21 -24 28 -35 11z"/>
<path d="M20133 4829 c-32 -9 -70 -59 -56 -73 21 -21 86 20 98 62 7 24 5 25
-42 11z"/>
<path d="M20870 4783 c-8 -7 -32 -27 -53 -45 -20 -18 -43 -38 -50 -44 -7 -6
-18 -9 -25 -6 -14 4 -17 -14 -3 -22 5 -4 26 10 46 30 20 19 45 36 56 37 10 1
19 5 19 10 0 4 12 18 27 31 15 13 20 23 12 22 -8 0 -21 -6 -29 -13z"/>
<path d="M10016 4714 c-9 -23 -9 -23 29 -30 19 -3 33 -10 30 -14 -3 -5 3 -8
14 -7 27 2 7 30 -35 50 -29 14 -33 14 -38 1z"/>
<path d="M9247 4695 c7 -19 86 -75 105 -75 10 1 9 4 -2 13 -8 7 -21 24 -29 39
-18 34 -87 56 -74 23z"/>
<path d="M20709 4633 c-13 -16 -12 -17 4 -4 16 13 21 21 13 21 -2 0 -10 -8
-17 -17z"/>
<path d="M19871 4627 c-9 -11 -8 -17 4 -27 12 -10 16 -9 21 5 9 23 -10 40 -25
22z"/>
<path d="M20670 4610 c0 -5 5 -10 10 -10 6 0 10 5 10 10 0 6 -4 10 -10 10 -5
0 -10 -4 -10 -10z"/>
<path d="M10180 4595 c0 -9 5 -13 10 -10 6 3 10 1 10 -4 0 -6 5 -11 10 -11 17
0 11 19 -10 30 -16 9 -20 8 -20 -5z"/>
<path d="M19835 4600 c-4 -6 -11 -7 -17 -4 -7 4 -8 2 -4 -4 6 -11 -6 -16 -26
-13 -10 1 -10 -12 -2 -34 6 -14 8 -13 21 5 8 11 19 18 24 15 5 -4 9 -1 9 4 0
6 5 10 11 9 6 -2 14 3 16 10 3 8 -1 10 -13 5 -12 -4 -15 -3 -10 5 4 7 5 12 2
12 -3 0 -8 -5 -11 -10z"/>
<path d="M20555 4546 c-16 -7 -29 -14 -27 -17 7 -9 -11 -39 -19 -33 -11 6 -49
-37 -42 -48 8 -14 19 -9 59 27 21 19 44 35 50 35 15 0 27 31 17 41 -4 4 -21 2
-38 -5z"/>
<path d="M9401 4546 c12 -10 60 -16 54 -6 -3 5 -18 10 -32 10 -15 0 -24 -2
-22 -4z"/>
<path d="M19668 4494 c-41 -22 -37 -48 5 -39 38 9 34 6 39 29 4 25 -11 29 -44
10z"/>
<path d="M9505 4480 c3 -5 14 -10 24 -10 9 0 22 -5 29 -12 7 -7 12 -8 12 -2 0
17 -23 34 -48 34 -13 0 -20 -4 -17 -10z"/>
<path d="M10364 4479 c-7 -12 12 -29 34 -29 19 0 14 18 -7 30 -14 7 -22 7 -27
-1z"/>
<path d="M19597 4453 c-2 -10 -8 -26 -12 -36 -6 -14 -4 -16 11 -10 25 9 43 34
37 50 -7 19 -30 16 -36 -4z"/>
<path d="M10490 4406 c0 -9 7 -19 15 -23 25 -9 27 2 5 22 -18 17 -20 17 -20 1z"/>
<path d="M9673 4374 c0 -12 17 -24 44 -30 6 -1 9 4 6 12 -3 8 -12 14 -20 14
-8 0 -12 4 -9 8 3 5 -1 9 -8 9 -7 0 -13 -6 -13 -13z"/>
<path d="M20320 4341 c0 -6 4 -12 8 -15 5 -3 9 1 9 9 0 8 -4 15 -9 15 -4 0 -8
-4 -8 -9z"/>
<path d="M20213 4272 c0 -10 7 -19 13 -19 9 0 10 5 3 19 -5 10 -12 18 -14 18
-2 0 -3 -8 -2 -18z"/>
<path d="M20153 4263 c-22 -21 -36 -50 -25 -57 4 -3 22 2 40 11 23 11 32 22
32 40 0 23 -2 24 -17 12 -11 -10 -14 -10 -9 -1 10 17 3 15 -21 -5z"/>
<path d="M9837 4262 c-8 -12 27 -51 46 -52 11 0 41 -30 30 -30 -7 -1 25 -23
37 -26 3 0 13 -4 23 -9 10 -4 21 -4 25 0 4 4 1 10 -5 12 -7 3 -13 10 -13 16 0
14 -54 47 -76 47 -8 0 -14 5 -14 10 0 6 -9 10 -19 10 -11 0 -21 8 -23 18 -3
13 -5 14 -11 4z"/>
<path d="M10783 4234 c-10 -10 -10 -16 3 -29 9 -8 20 -13 25 -10 5 4 9 1 9 -5
0 -6 5 -8 11 -4 6 4 7 9 2 13 -5 3 -16 16 -24 27 -11 18 -16 19 -26 8z"/>
<path d="M19243 4227 c-4 -8 -29 -19 -55 -26 -51 -14 -97 -51 -64 -51 23 0 59
19 69 37 5 9 16 11 29 7 26 -8 68 14 61 32 -7 18 -30 18 -40 1z"/>
<path d="M10930 4131 c31 -27 51 -36 65 -28 2 1 11 -8 19 -19 20 -28 89 -61
94 -45 2 6 9 8 15 4 7 -4 5 2 -3 12 -8 10 -38 29 -67 41 -28 13 -54 28 -58 33
-3 6 -17 11 -31 11 -14 0 -35 5 -47 11 -13 6 -7 -2 13 -20z"/>
<path d="M18978 4093 c-16 -8 -28 -18 -28 -24 0 -5 -7 -9 -15 -9 -8 0 -15 -4
-15 -8 0 -5 -11 -15 -25 -22 -14 -7 -23 -15 -20 -18 2 -3 15 2 28 11 16 10 28
12 40 6 20 -12 67 15 67 38 0 8 4 12 8 9 4 -2 8 4 8 15 0 22 -10 23 -48 2z"/>
<path d="M10187 4013 c21 -21 40 -37 42 -36 2 1 16 -6 31 -17 16 -11 31 -20
35 -20 3 0 29 -15 58 -33 29 -19 65 -37 82 -41 l29 -7 -19 23 c-30 35 -47 46
-79 54 -27 6 -80 44 -62 44 18 0 -56 52 -86 61 -65 18 -72 12 -31 -28z"/>
<path d="M11193 4007 c0 -7 9 -14 20 -14 11 -1 18 -1 16 0 -2 2 -11 8 -20 15
-12 9 -16 9 -16 -1z"/>
<path d="M19760 3989 c-14 -4 -20 -8 -15 -8 6 -1 3 -6 -5 -11 -13 -8 -12 -10
3 -10 9 0 17 5 17 10 0 6 6 10 13 9 22 -3 37 1 37 9 0 10 -17 11 -50 1z"/>
<path d="M18698 3962 c10 -7 4 -11 -22 -16 -19 -4 -42 -14 -51 -22 -8 -8 -23
-14 -32 -13 -26 4 -111 -53 -105 -70 3 -10 6 -10 12 -1 4 7 30 12 61 12 55 1
89 11 89 28 0 24 44 53 77 52 27 -1 34 2 31 16 -2 11 -14 18 -38 20 -23 2 -31
0 -22 -6z"/>
<path d="M11275 3950 c-8 -12 20 -24 35 -15 5 3 10 0 10 -7 0 -9 3 -9 10 2 8
13 14 8 12 -11 -1 -3 11 -4 26 -1 22 5 24 7 7 10 -11 2 -24 8 -30 12 -5 4 -22
6 -38 4 -15 -1 -25 1 -22 7 4 5 4 9 1 9 -3 0 -8 -5 -11 -10z"/>
<path d="M19645 3920 c-11 -17 5 -32 21 -19 7 6 11 15 8 20 -7 12 -21 11 -29
-1z"/>
<path d="M11395 3906 c-18 -13 -17 -15 18 -29 20 -9 46 -15 57 -14 18 1 18 3
-7 29 -30 32 -41 34 -68 14z m20 -6 c-3 -5 -12 -10 -18 -10 -7 0 -6 4 3 10 19
12 23 12 15 0z"/>
<path d="M10500 3831 c0 -28 142 -104 159 -85 3 4 0 9 -6 11 -7 3 -13 11 -13
19 0 8 -6 14 -14 14 -8 0 -16 5 -18 10 -2 6 -12 12 -23 14 -11 2 -33 9 -48 15
-34 13 -37 13 -37 2z"/>
<path d="M11560 3830 c-11 -7 3 -17 50 -39 36 -17 74 -31 85 -30 11 0 14 3 8
6 -7 2 -13 11 -13 19 0 33 -96 65 -130 44z"/>
<path d="M18288 3763 c-11 -12 -24 -20 -29 -18 -4 3 -11 1 -14 -5 -4 -6 -16
-8 -27 -4 -12 4 -18 2 -14 -4 3 -5 -7 -8 -25 -6 -17 2 -38 0 -48 -5 -15 -9
-15 -10 1 -16 10 -4 15 -12 11 -18 -4 -6 4 -7 23 -2 16 5 39 9 52 9 12 1 22 5
22 9 0 5 5 5 10 2 6 -3 10 -1 10 5 0 6 5 8 10 5 6 -3 10 -2 10 3 0 5 7 9 15
10 8 1 21 3 28 4 6 1 22 13 34 28 l22 26 -35 0 c-23 -1 -43 -9 -56 -23z"/>
<path d="M10721 3721 c-13 -9 -2 -25 29 -41 30 -17 59 -20 66 -8 7 11 -15 39
-30 37 -23 -3 -37 1 -32 9 6 10 -18 12 -33 3z"/>
<path d="M11867 3700 c3 -11 9 -20 15 -20 5 0 4 9 -2 20 -6 11 -12 20 -14 20
-2 0 -2 -9 1 -20z"/>
<path d="M18115 3690 c3 -5 8 -10 11 -10 2 0 4 5 4 10 0 6 -5 10 -11 10 -5 0
-7 -4 -4 -10z"/>
<path d="M19196 3676 c-16 -16 -16 -20 -3 -33 12 -12 16 -12 28 0 8 7 21 16
28 18 8 3 15 12 17 21 3 22 -46 18 -70 -6z"/>
<path d="M11966 3664 c-4 -10 5 -19 27 -28 45 -18 61 -23 71 -24 5 0 13 -7 18
-16 5 -9 14 -13 20 -10 6 4 13 1 17 -5 9 -14 37 -5 44 14 7 16 -41 43 -51 29
-4 -5 -13 -9 -19 -8 -7 1 -17 2 -23 3 -5 0 -10 6 -10 11 0 34 -83 64 -94 34z"/>
<path d="M17993 3661 c-5 -7 -23 -14 -40 -15 -17 0 -29 -4 -26 -8 2 -5 -4 -8
-14 -8 -10 0 -31 -13 -46 -30 l-29 -30 36 0 c19 0 38 5 41 10 4 6 11 8 16 4 5
-3 9 -2 8 3 -4 22 4 32 33 46 18 9 35 12 38 7 3 -5 12 -5 20 0 13 9 13 10 0
10 -8 1 -1 7 15 14 l30 13 -37 -1 c-20 -1 -40 -7 -45 -15z"/>
<path d="M10860 3653 c5 -2 8 -9 4 -14 -3 -5 0 -9 6 -9 15 0 7 23 -8 26 -7 1
-8 0 -2 -3z"/>
<path d="M10890 3637 c0 -8 7 -14 15 -14 11 0 12 4 4 14 -6 7 -13 13 -15 13
-2 0 -4 -6 -4 -13z"/>
<path d="M10963 3588 c3 -19 19 -28 49 -28 15 0 30 -4 33 -10 3 -5 17 -10 30
-10 16 0 23 -5 19 -13 -6 -18 43 -41 50 -24 3 9 5 9 5 0 1 -7 8 -10 16 -7 14
6 13 8 -1 19 -10 7 -25 10 -34 8 -10 -3 -21 7 -30 28 -15 33 -68 59 -80 39 -3
-5 -11 -5 -20 0 -21 14 -40 12 -37 -2z"/>
<path d="M19056 3583 c-6 -14 -5 -15 5 -6 7 7 10 15 7 18 -3 3 -9 -2 -12 -12z"/>
<path d="M12372 3526 c10 -7 14 -17 10 -21 -4 -4 3 -5 15 -2 13 3 25 1 28 -4
6 -9 35 -1 35 11 0 10 -56 30 -84 30 -19 -1 -20 -2 -4 -14z"/>
<path d="M17635 3532 c-11 -2 -27 -10 -35 -17 -8 -7 -22 -15 -30 -18 -8 -3 -3
-6 13 -6 15 -1 27 4 27 12 0 6 5 4 11 -6 10 -18 11 -18 26 0 8 10 12 12 8 6
-3 -7 -1 -13 4 -13 6 0 11 5 11 11 0 6 6 9 14 6 8 -3 20 1 26 9 9 10 9 14 1
14 -6 0 -11 -5 -11 -11 0 -7 -8 -6 -22 3 -13 8 -32 12 -43 10z"/>
<path d="M18860 3486 c4 -4 16 -4 26 2 16 9 14 10 -8 9 -15 -1 -23 -6 -18 -11z"/>
<path d="M11170 3480 c0 -5 5 -10 11 -10 5 0 7 5 4 10 -3 6 -8 10 -11 10 -2 0
-4 -4 -4 -10z"/>
<path d="M11200 3471 c0 -5 7 -11 15 -15 8 -3 15 -1 15 3 0 5 -7 11 -15 15 -8
3 -15 1 -15 -3z"/>
<path d="M12575 3470 c-2 -4 6 -16 18 -27 27 -25 136 -31 116 -6 -7 7 -14 11
-17 8 -3 -3 -13 1 -21 9 -18 16 -89 28 -96 16z"/>
<path d="M17303 3418 c1 -20 25 -20 45 -1 18 17 15 21 -17 19 -22 0 -29 -5
-28 -18z"/>
<path d="M17405 3430 c3 -5 11 -10 16 -10 6 0 7 5 4 10 -3 6 -11 10 -16 10 -6
0 -7 -4 -4 -10z"/>
<path d="M11305 3421 c-3 -5 -1 -12 5 -16 5 -3 10 1 10 9 0 18 -6 21 -15 7z"/>
<path d="M11355 3410 c-8 -13 3 -30 18 -30 7 0 24 -6 39 -14 43 -23 91 -31 86
-15 -3 8 -11 14 -19 15 -35 2 -40 5 -51 29 -8 18 -19 25 -39 25 -15 0 -31 -4
-34 -10z"/>
<path d="M18690 3406 c7 -7 13 -7 20 0 6 6 3 10 -10 10 -13 0 -16 -4 -10 -10z"/>
<path d="M17174 3389 c-9 -15 12 -33 30 -26 9 4 16 13 16 22 0 17 -35 21 -46
4z"/>
<path d="M12907 3383 c-4 -3 -7 -11 -7 -17 0 -6 5 -5 12 2 6 6 9 14 7 17 -3 3
-9 2 -12 -2z"/>
<path d="M16949 3329 c-7 -13 -7 -19 -1 -15 6 3 13 2 17 -3 9 -16 35 -1 35 20
0 26 -36 25 -51 -2z"/>
<path d="M16862 3327 c-46 -21 -11 -43 37 -24 17 6 31 14 31 18 0 12 -46 16
-68 6z"/>
<path d="M16774 3312 c6 -11 -13 -17 -37 -13 -5 1 -6 -3 -2 -9 3 -5 1 -10 -6
-10 -7 0 -9 -3 -5 -7 10 -11 56 -11 50 -1 -3 5 -1 15 6 23 8 10 8 15 -1 21 -8
4 -9 3 -5 -4z"/>
<path d="M13290 3291 c-7 -15 -6 -21 8 -27 9 -4 21 -6 26 -5 4 1 13 -2 20 -7
6 -5 31 -10 55 -11 24 -1 51 -6 60 -10 9 -4 31 -6 50 -4 19 2 39 -2 46 -7 7
-6 32 -11 56 -13 24 -1 47 -6 50 -10 10 -14 120 -9 135 5 9 10 -50 25 -84 22
-18 -2 -31 0 -28 5 7 11 -98 36 -118 28 -9 -4 -16 -2 -16 2 0 5 -10 9 -22 9
-13 0 -36 4 -53 7 -16 4 -44 7 -61 6 -18 0 -50 6 -73 14 -38 13 -42 13 -51 -4z"/>
<path d="M16503 3260 c-25 -10 -31 -30 -10 -30 6 0 22 -3 35 -6 16 -5 22 -2
22 10 0 10 4 14 10 11 6 -3 7 1 4 9 -7 18 -27 19 -61 6z"/>
<path d="M11748 3228 c4 -3 19 -10 35 -13 22 -6 26 -4 22 8 -4 9 -18 14 -35
13 -16 0 -26 -4 -22 -8z"/>
<path d="M16130 3212 c-38 -15 -34 -24 12 -27 35 -3 58 9 58 29 0 16 -29 15
-70 -2z"/>
<path d="M11902 3174 c-13 -9 -12 -12 4 -19 28 -12 84 -15 84 -4 0 5 -4 9 -10
9 -5 0 -10 7 -10 15 0 17 -44 17 -68 -1z"/>
<path d="M14141 3183 c-13 -3 -31 -11 -38 -19 -12 -12 -11 -15 11 -24 39 -14
124 -7 141 13 8 9 12 15 9 12 -4 -3 -13 0 -21 6 -15 13 -65 19 -102 12z"/>
<path d="M15840 3168 c0 -5 7 -8 16 -8 8 0 13 -4 9 -9 -3 -6 11 -7 32 -4 21 2
48 6 61 7 30 4 41 16 16 17 -78 4 -134 3 -134 -3z"/>
<path d="M15592 3164 c4 -5 -34 -9 -85 -9 -101 -1 -142 -10 -117 -25 13 -9 13
-10 0 -10 -9 -1 -6 -5 7 -10 15 -6 31 -5 49 5 15 8 53 14 83 15 50 1 111 5
134 9 19 3 -7 22 -26 19 -12 -1 -28 2 -36 6 -8 5 -12 5 -9 0z"/>
<path d="M15788 3159 c13 -5 21 -13 17 -19 -3 -6 1 -7 9 -4 28 11 17 31 -16
32 -30 0 -31 -1 -10 -9z"/>
<path d="M14356 3150 c-35 -12 0 -20 111 -26 118 -7 116 -7 188 0 28 3 55 0
62 -6 16 -13 161 -4 175 10 6 6 -19 12 -64 15 -114 10 -451 15 -472 7z"/>
<path d="M17935 3140 c-3 -5 -11 -8 -16 -5 -5 4 -9 1 -9 -5 0 -6 -4 -8 -10 -5
-5 3 -10 3 -11 -2 0 -4 -2 -16 -4 -25 -3 -14 2 -16 28 -11 18 3 34 9 37 13 3
4 11 9 18 11 10 3 8 9 -6 22 -13 12 -22 15 -27 7z"/>
<path d="M15162 3128 c3 -7 13 -15 22 -16 12 -3 17 1 14 10 -3 7 -13 15 -22
16 -12 3 -17 -1 -14 -10z"/>
<path d="M12220 3075 c0 -13 34 -17 42 -4 2 2 1 3 -1 2 -2 -1 -12 2 -22 8 -15
7 -19 6 -19 -6z"/>
<path d="M17820 3080 c0 -6 7 -10 15 -10 8 0 15 2 15 4 0 2 -7 6 -15 10 -8 3
-15 1 -15 -4z"/>
<path d="M12456 3014 c-3 -9 7 -19 28 -28 57 -24 70 -26 101 -17 l30 9 -33 1
c-19 1 -31 5 -27 11 4 6 -7 10 -25 10 -17 0 -29 4 -26 9 3 5 -5 11 -19 13 -14
3 -26 0 -29 -8z"/>
<path d="M12627 2964 c-8 -8 1 -24 14 -24 5 0 9 7 9 15 0 15 -12 20 -23 9z"/>
<path d="M12705 2940 c3 -5 0 -10 -7 -10 -10 0 -9 -3 2 -9 8 -6 17 -8 21 -5 4
2 10 0 14 -6 9 -15 45 -12 45 4 0 14 -18 25 -58 32 -15 3 -21 1 -17 -6z"/>
<path d="M17277 2921 c-4 -17 -3 -21 5 -13 5 5 8 16 6 23 -3 8 -7 3 -11 -10z"/>
<path d="M17148 2913 c-10 -2 -18 -11 -18 -18 0 -11 6 -12 30 -4 48 17 38 35
-12 22z"/>
<path d="M13022 2869 c-37 -8 -54 -19 -29 -19 10 0 17 -4 17 -9 0 -12 108 -13
115 -2 9 15 -68 37 -103 30z"/>
<path d="M16912 2846 c2 -27 25 -30 31 -5 3 11 -2 19 -14 22 -14 4 -18 0 -17
-17z"/>
<path d="M16880 2820 c-9 -6 -10 -10 -3 -10 6 0 15 5 18 10 8 12 4 12 -15 0z"/>
<path d="M13277 2808 c-7 -4 1 -11 18 -17 17 -6 38 -16 49 -22 12 -7 16 -7 12
0 -4 7 -1 8 8 5 9 -3 16 -10 16 -14 0 -9 99 -4 108 5 10 10 -20 34 -51 41 -42
10 -146 11 -160 2z"/>
<path d="M13503 2765 c0 -8 7 -15 14 -15 8 0 11 5 7 13 -6 10 -4 10 7 0 7 -7
19 -13 27 -13 12 0 12 3 2 15 -7 8 -22 15 -35 15 -13 0 -22 -6 -22 -15z"/>
<path d="M13596 2761 c-14 -6 -10 -9 20 -19 29 -9 40 -9 46 1 4 6 5 13 3 16
-8 7 -50 8 -69 2z"/>
<path d="M13683 2745 c0 -8 8 -15 17 -15 9 0 20 -3 24 -7 3 -4 16 -8 28 -10
16 -3 18 -1 9 10 -6 8 -7 18 -3 22 4 5 1 5 -5 1 -7 -4 -13 -2 -13 3 0 6 -7 11
-15 11 -8 0 -15 -5 -15 -11 0 -8 -4 -8 -13 0 -10 8 -14 7 -14 -4z"/>
<path d="M13827 2745 c-9 -9 -17 -12 -17 -7 0 5 -7 9 -15 9 -21 0 -19 -5 13
-21 16 -8 37 -13 48 -11 10 2 25 4 33 4 11 1 11 4 0 17 -9 11 -15 12 -17 5 -3
-8 -8 -6 -16 5 -12 15 -13 15 -29 -1z"/>
<path d="M16355 2730 c3 -5 10 -10 16 -10 5 0 9 5 9 10 0 6 -7 10 -16 10 -8 0
-12 -4 -9 -10z"/>
<path d="M13958 2722 c-10 -2 -18 -7 -18 -12 0 -5 -7 -7 -15 -4 -8 4 -15 2
-15 -3 0 -5 6 -10 13 -10 6 -1 29 -4 50 -7 20 -3 37 -1 37 4 0 6 0 13 1 17 1
10 -33 20 -53 15z"/>
<path d="M16273 2723 c9 -2 25 -2 35 0 9 3 1 5 -18 5 -19 0 -27 -2 -17 -5z"/>
<path d="M14030 2710 c0 -5 5 -10 10 -10 6 0 10 5 10 10 0 6 -4 10 -10 10 -5
0 -10 -4 -10 -10z"/>
<path d="M14110 2711 c0 -7 7 -19 15 -27 8 -9 15 -12 15 -8 0 3 7 1 16 -7 13
-10 17 -10 24 0 6 11 9 11 13 0 3 -8 6 -4 6 10 1 17 -3 22 -14 17 -8 -3 -15
-1 -15 5 0 6 -4 8 -9 5 -5 -4 -12 0 -14 6 -4 10 -6 9 -6 -1 -1 -11 -4 -11 -16
-1 -11 9 -15 10 -15 1z"/>
<path d="M14245 2691 c-8 -7 -6 -21 3 -19 4 0 14 -1 22 -5 56 -21 140 -32 140
-17 0 5 -5 10 -11 10 -6 0 -25 6 -42 14 -33 15 -104 26 -112 17z"/>
<path d="M14735 2680 c-3 -5 -13 -6 -22 -3 -10 4 -14 2 -10 -4 4 -6 1 -11 -6
-10 -40 1 -67 -4 -62 -13 3 -5 12 -7 20 -4 8 3 30 1 49 -6 38 -12 113 -16 123
-6 9 8 -28 47 -38 40 -5 -3 -17 0 -28 6 -13 6 -22 6 -26 0z"/>
<path d="M14451 2661 c-11 -7 -10 -10 3 -18 19 -11 76 -5 76 8 0 14 -18 20
-23 7 -4 -10 -6 -10 -6 0 -1 14 -29 16 -50 3z"/>
<path d="M15340 2656 c0 -9 5 -16 10 -16 6 0 10 4 10 9 0 6 -4 13 -10 16 -5 3
-10 -1 -10 -9z"/>
<path d="M14568 2653 c7 -3 16 -2 19 1 4 3 -2 6 -13 5 -11 0 -14 -3 -6 -6z"/>
</g>
</svg>
